<svg width="99" height="186" viewBox="0 0 99 186" fill="none" xmlns="http://www.w3.org/2000/svg">
<path d="M49.1574 185.712C76.3063 185.712 98.3149 182.364 98.3149 178.234C98.3149 174.104 76.3063 170.756 49.1574 170.756C22.0085 170.756 0 174.104 0 178.234C0 182.364 22.0085 185.712 49.1574 185.712Z" fill="#232323"/>
<path d="M18.3204 91.2148C17.6148 91.0118 16.8784 90.7528 16.2941 90.2938C15.9816 90.0478 15.6773 89.7018 15.6729 89.2828C15.6688 88.8938 15.9215 88.5648 16.2038 88.3228C16.6349 87.9808 17.1323 87.7308 17.6647 87.5898C18.4814 87.3568 19.3288 87.2508 20.1776 87.2738C20.2865 87.2748 20.3665 87.1188 20.2731 87.0428C19.2638 86.2218 18.2445 85.3408 17.4677 84.2878C17.2378 83.9938 17.0496 83.6698 16.9085 83.3238C16.8174 83.1168 16.7865 82.8888 16.8195 82.6648C16.8366 82.5868 16.8707 82.5148 16.9194 82.4518C16.9682 82.3888 17.0303 82.3378 17.1013 82.3028C17.2924 82.2118 17.5027 82.1688 17.714 82.1778C18.4004 82.1778 19.0895 82.4328 19.7019 82.7218C20.7166 83.2148 21.6489 83.8618 22.466 84.6398C22.4874 84.6598 22.5147 84.6728 22.5439 84.6758C22.5731 84.6798 22.6026 84.6728 22.628 84.6588C22.6535 84.6438 22.6734 84.6208 22.6849 84.5938C22.6963 84.5668 22.6987 84.5368 22.6917 84.5078C22.1593 82.8448 21.6884 81.1148 21.5847 79.3638C21.5429 78.8468 21.5637 78.3278 21.6467 77.8168C21.7039 77.5088 21.8057 77.1588 21.9904 76.9328C22.0483 76.8508 22.126 76.7838 22.2164 76.7398C22.3069 76.6948 22.407 76.6738 22.5077 76.6788C22.6129 76.6888 22.7157 76.7158 22.8118 76.7608C22.9396 76.8228 23.0589 76.9018 23.1667 76.9948C23.8674 77.5918 24.2922 78.5138 24.6087 79.3568C25.1477 80.7938 25.4164 82.3278 25.5373 83.8528C25.5555 84.0828 25.5703 84.3138 25.5816 84.5438C25.5827 84.5758 25.595 84.6068 25.6165 84.6308C25.638 84.6548 25.6673 84.6698 25.6991 84.6738C25.7309 84.6788 25.7631 84.6718 25.7902 84.6538C25.8173 84.6368 25.8373 84.6108 25.8469 84.5798C26.2336 83.5508 26.6827 82.5408 27.1599 81.5508C27.5737 80.6788 28.0324 79.8298 28.5342 79.0058C28.9908 78.2668 29.4933 77.5328 30.1241 76.9288C30.5373 76.5338 31.106 76.0948 31.7172 76.1798C32.2145 76.2478 32.4193 76.6468 32.4435 77.1258C32.4792 77.8308 32.2571 78.5488 32.0314 79.2088C31.7359 80.0458 31.389 80.8638 30.9926 81.6578C30.4462 82.7798 29.836 83.8648 29.202 84.9388C29.1912 84.9568 29.18 84.9748 29.169 84.9928C29.0936 85.1148 29.2389 85.2338 29.3537 85.1778C29.7406 84.9888 30.1399 84.8228 30.5416 84.6678C31.2736 84.3858 32.0437 84.1228 32.8275 84.0378C33.3243 83.9848 34.1825 83.9808 34.2598 84.6478C34.2953 84.9548 34.1353 85.2598 33.9748 85.5088C33.76 85.8268 33.51 86.1208 33.2295 86.3828C32.8238 86.7798 32.385 87.1418 31.9181 87.4648C31.8909 87.4818 31.8706 87.5078 31.8609 87.5388C31.8512 87.5698 31.8528 87.6028 31.8653 87.6328C31.8778 87.6618 31.9004 87.6868 31.9292 87.7008C31.9579 87.7158 31.9909 87.7188 32.0222 87.7118C32.848 87.5358 33.6903 87.4488 34.5347 87.4538C35.0311 87.4598 35.6136 87.4858 36.0445 87.7638C36.1241 87.8108 36.1926 87.8748 36.2455 87.9518C36.2984 88.0278 36.3345 88.1148 36.3512 88.2058C36.4061 88.5998 36.3431 89.0018 36.1702 89.3598C35.948 89.8348 35.5979 90.2388 35.159 90.5258C35.0349 90.6038 35.1127 90.8248 35.263 90.7728C35.4622 90.6978 35.6786 90.6828 35.8862 90.7288C36.4233 90.8598 36.4172 91.5168 36.3573 91.9568C36.3483 92.0228 36.3722 92.1098 36.4516 92.1228C37.1247 92.2298 37.9252 92.4698 38.2389 93.1408C38.3114 93.2968 38.3502 93.4668 38.3526 93.6388C38.3537 93.6968 38.3509 93.7548 38.3443 93.8128C38.3479 93.7698 38.3349 93.7278 38.3081 93.6938C38.2813 93.6608 38.2427 93.6388 38.2003 93.6328C38.1579 93.6278 38.1149 93.6378 38.0801 93.6628C38.0453 93.6878 38.0215 93.7258 38.0135 93.7678C38.0055 93.8098 38.0139 93.8528 38.0371 93.8888C38.0602 93.9258 38.0963 93.9508 38.1379 93.9608C38.1795 93.9718 38.2234 93.9648 38.2606 93.9438C38.2978 93.9228 38.3254 93.8878 38.3378 93.8468C38.2987 94.0168 38.559 94.0888 38.5982 93.9188C38.7536 93.2468 38.315 92.5888 37.7543 92.2628C37.3721 92.0548 36.9548 91.9188 36.5234 91.8628L36.6177 92.0288C36.6947 91.4628 36.6742 90.7088 36.0307 90.4898C35.7557 90.4078 35.4615 90.4148 35.1912 90.5118L35.2953 90.7588C35.6957 90.4978 36.0309 90.1478 36.2754 89.7368C36.4917 89.3828 36.6158 88.9808 36.6362 88.5668C36.6484 88.2688 36.619 87.9718 36.4221 87.7368C36.0821 87.3318 35.4603 87.2428 34.9661 87.2028C34.3358 87.1638 33.7032 87.1878 33.0777 87.2738C32.7006 87.3198 32.3226 87.3738 31.9504 87.4508L32.0545 87.6978C32.4839 87.4008 32.891 87.0718 33.2723 86.7148C33.5804 86.4358 33.8601 86.1268 34.1074 85.7928C34.3319 85.5108 34.4775 85.1748 34.5294 84.8188C34.5443 84.6638 34.5195 84.5068 34.4575 84.3648C34.3954 84.2218 34.2981 84.0968 34.1747 84.0018C33.9038 83.8218 33.583 83.7328 33.2582 83.7458C32.4285 83.7328 31.5886 84.0008 30.8163 84.2788C30.2716 84.4708 29.7379 84.6928 29.2175 84.9438L29.4022 85.1288C29.9836 84.1868 30.5161 83.2098 31.0144 82.2208C31.4321 81.4058 31.8063 80.5698 32.1354 79.7148C32.4111 78.9838 32.668 78.2098 32.7118 77.4238C32.7403 76.9118 32.6466 76.2958 32.1438 76.0338C31.5871 75.7438 30.9411 75.9678 30.4605 76.3018C29.7728 76.7798 29.2401 77.4688 28.7688 78.1518C28.2184 78.9648 27.7225 79.8138 27.2844 80.6928C26.661 81.9128 26.1023 83.1648 25.6108 84.4448C25.6026 84.4658 25.5945 84.4868 25.5865 84.5078L25.8518 84.5438C25.7683 82.8858 25.5298 81.2118 24.9942 79.6348C24.6674 78.6728 24.2269 77.6418 23.4857 76.9198C23.0942 76.5388 22.4809 76.1948 21.9726 76.5768C21.7257 76.7878 21.5511 77.0708 21.473 77.3858C21.3445 77.8508 21.2854 78.3318 21.2978 78.8148C21.2974 80.4908 21.7104 82.1728 22.1818 83.7698C22.2617 84.0408 22.3449 84.3108 22.4314 84.5798L22.6571 84.4488C21.8765 83.7078 20.9948 83.0808 20.0384 82.5868C19.363 82.2458 18.6169 81.9538 17.8536 81.9118C17.407 81.8878 16.8408 81.9718 16.6216 82.4198C16.3561 82.9628 16.7117 83.6318 17.0015 84.0858C17.3284 84.5798 17.7033 85.0408 18.1209 85.4608C18.7382 86.0908 19.3931 86.6828 20.0822 87.2338L20.1777 87.0028C19.3635 86.9838 18.5506 87.0778 17.762 87.2808C17.1608 87.4268 16.5951 87.6918 16.0988 88.0618C15.7514 88.3358 15.452 88.7128 15.4081 89.1678C15.364 89.6248 15.6152 90.0398 15.9377 90.3418C16.5656 90.9308 17.4371 91.2418 18.2487 91.4758C18.2828 91.4838 18.3187 91.4778 18.3488 91.4598C18.379 91.4428 18.4011 91.4138 18.4104 91.3798C18.4197 91.3458 18.4155 91.3098 18.3987 91.2798C18.382 91.2488 18.3538 91.2258 18.3204 91.2148Z" fill="#DAD4C5"/>
<path d="M27.4597 91.3098C27.3665 91.0148 27.2512 90.7268 27.1147 90.4498C26.8972 89.9988 26.6156 89.5198 26.1889 89.2378C25.7785 88.9668 25.2002 89.0098 24.8977 89.4248C24.5934 89.8428 24.6937 90.4468 24.8159 90.9098C24.9194 91.3028 25.0648 91.6828 25.2497 92.0448L25.4022 91.8468C24.7954 91.5988 23.9843 91.4938 23.3927 91.8258C23.1422 91.9658 22.9903 92.2048 23.0969 92.4918C23.1958 92.7568 23.4296 92.9638 23.6462 93.1338C23.8136 93.2678 23.9908 93.3888 24.1763 93.4958V93.2618C23.6394 93.6108 23.304 94.2698 23.7072 94.8488C23.8058 94.9908 24.04 94.8558 23.9404 94.7128C23.8431 94.5858 23.7919 94.4298 23.7952 94.2698C23.7985 94.1098 23.8561 93.9558 23.9585 93.8338C24.0559 93.7008 24.1758 93.5868 24.3126 93.4948C24.3326 93.4828 24.3492 93.4658 24.3606 93.4458C24.3721 93.4248 24.3781 93.4018 24.3781 93.3788C24.3781 93.3548 24.3721 93.3328 24.3606 93.3118C24.3492 93.2918 24.3326 93.2738 24.3126 93.2618C23.9941 93.0818 23.645 92.8488 23.4318 92.5468C23.3057 92.3678 23.2894 92.2058 23.4904 92.0818C23.8273 91.8728 24.2572 91.8648 24.6379 91.9228C24.8752 91.9568 25.1075 92.0188 25.3304 92.1068C25.4485 92.1548 25.531 92.0018 25.483 91.9088C25.3548 91.6538 25.2467 91.3908 25.1598 91.1188C25.0225 90.7008 24.87 90.1658 25.0352 89.7338C25.1906 89.3268 25.6715 89.2358 26.0192 89.4498C26.4041 89.6868 26.6539 90.1278 26.8497 90.5208C26.9895 90.7978 27.1065 91.0858 27.1993 91.3818C27.2502 91.5468 27.5109 91.4768 27.4597 91.3098Z" fill="#DAD4C5"/>
<path d="M44.5764 178.72C33.0432 178.72 24.201 176.663 18.0499 172.55C11.8989 168.437 8.82336 162.674 8.82336 155.26C8.82336 150.081 10.4637 145.688 13.7442 142.083C17.0248 138.528 21.715 136.065 27.8148 134.694C25.5081 133.679 23.509 132.105 21.8175 129.972C20.1772 127.789 19.357 125.377 19.357 122.736C19.357 119.588 20.2541 116.896 22.0481 114.662C23.8422 112.428 26.5333 110.27 30.1214 108.188C25.6619 106.309 22.0738 103.262 19.357 99.0478C16.6916 94.7818 15.3589 89.7798 15.3589 84.0418C15.3589 77.9488 16.666 72.7692 19.2802 68.5038C21.8944 64.1876 25.7132 60.9123 30.7365 58.6781C35.7599 56.393 41.834 55.2505 48.959 55.2505C50.4968 55.2505 52.1627 55.352 53.9569 55.5552C55.8019 55.7075 57.4939 55.9106 59.0309 56.1645C60.6199 56.3676 61.8249 56.5961 62.6449 56.85H92.0929V66.8281L77.6379 69.494C79.0219 71.4236 80.1239 73.6328 80.9449 76.1208C81.7649 78.5578 82.1749 81.2238 82.1749 84.1188C82.1749 92.8528 79.1249 99.7328 73.0249 104.76C66.9769 109.737 58.6209 112.225 47.9594 112.225C45.3965 112.123 42.9105 111.92 40.5013 111.615C38.656 112.733 37.2464 113.977 36.2725 115.348C35.2985 116.668 34.8116 118.166 34.8116 119.842C34.8116 121.213 35.2985 122.33 36.2725 123.193C37.2464 124.005 38.6816 124.615 40.5782 125.021C42.526 125.427 44.8839 125.63 47.6519 125.63H62.3379C71.6669 125.63 78.7919 127.585 83.7129 131.495C88.6329 135.405 91.0939 141.143 91.0939 148.709C91.0939 158.307 87.0959 165.695 79.0989 170.875C71.1029 176.105 59.5949 178.72 44.5764 178.72ZM45.2684 166.152C51.5732 166.152 56.8789 165.543 61.1839 164.324C65.4899 163.105 68.7449 161.353 70.9489 159.068C73.1529 156.834 74.2549 154.168 74.2549 151.071C74.2549 148.329 73.5629 146.221 72.1789 144.749C70.7949 143.276 68.7189 142.261 65.9509 141.702C63.1829 141.143 59.7489 140.864 55.6479 140.864H42.2697C38.9379 140.864 35.9905 141.372 33.4276 142.387C30.8646 143.454 28.8656 144.977 27.4303 146.958C26.0463 148.938 25.3544 151.325 25.3544 154.117C25.3544 157.977 27.0715 160.947 30.5058 163.029C33.9914 165.111 38.9123 166.152 45.2684 166.152ZM48.8052 100.495C54.0849 100.495 58.0059 99.0728 60.5689 96.2288C63.1319 93.3348 64.4139 89.2728 64.4139 84.0418C64.4139 78.3548 63.0809 74.0898 60.4149 71.2459C57.8009 68.4023 53.9059 66.9804 48.7283 66.9804C43.6537 66.9804 39.7837 68.4276 37.1182 71.322C34.504 74.2168 33.1969 78.5078 33.1969 84.1948C33.1969 89.3228 34.504 93.3348 37.1182 96.2288C39.7837 99.0728 43.6794 100.495 48.8052 100.495Z" fill="#DAD4C5"/>
<path d="M34.446 104.118C33.0322 115.639 38.1985 125.753 45.9853 126.709C53.7722 127.664 61.2308 119.099 62.6447 107.578C64.0585 96.0568 58.8922 85.9428 51.1053 84.9868C43.3185 84.0318 35.8599 92.5968 34.446 104.118Z" fill="#2B2B2B" fill-opacity="0.5"/>
<path d="M47.3858 47.3054C46.6051 53.6674 54.7957 59.9078 65.6802 61.2435C76.5647 62.5792 86.0208 58.5045 86.8018 52.1425C87.5828 45.7804 79.392 39.5401 68.5075 38.2043C57.6231 36.8686 48.1666 40.9433 47.3858 47.3054Z" fill="#2B2B2B" fill-opacity="0.3"/>
<path d="M91.6359 0.295044H39.8165C38.8362 0.295044 38.0414 1.08974 38.0414 2.07014V39.2392C38.0414 40.2196 38.8362 41.0143 39.8165 41.0143H91.6359C92.6159 41.0143 93.4109 40.2196 93.4109 39.2392V2.07014C93.4109 1.08974 92.6159 0.295044 91.6359 0.295044Z" fill="#458DC9"/>
<path d="M91.6349 40.7225H40.2442C40.1068 40.7225 39.9692 40.7245 39.8317 40.7225C39.4337 40.7209 39.0524 40.5617 38.7715 40.2797C38.4906 39.9977 38.3329 39.6158 38.3329 39.2177C38.3246 38.6168 38.3329 38.0151 38.3329 37.4141V4.21476C38.3329 3.52416 38.3304 2.83355 38.3329 2.14295C38.336 1.29725 38.9484 0.601555 39.8166 0.586455C39.9161 0.584755 40.0158 0.586455 40.1153 0.586455H90.3279C90.7599 0.586455 91.1919 0.579455 91.6239 0.586455C92.0229 0.589155 92.4039 0.749756 92.6839 1.03316C92.9639 1.31646 93.1199 1.69926 93.1189 2.09776C93.1209 2.29206 93.1189 2.48656 93.1189 2.68086V38.4979C93.1189 38.7197 93.1199 38.9415 93.1189 39.1632C93.1159 40.0124 92.5059 40.704 91.6349 40.7225C91.2609 40.7305 91.2589 41.3139 91.6349 41.3059C92.1859 41.2974 92.7119 41.0727 93.0979 40.6801C93.4849 40.2876 93.7019 39.7587 93.7019 39.2077C93.7049 39.0068 93.7019 38.8056 93.7019 38.6047V2.65765C93.7019 2.46885 93.7049 2.27996 93.7019 2.09126C93.6999 1.54176 93.4819 1.01516 93.0949 0.624656C92.7079 0.234156 92.1839 0.0109556 91.6349 0.00315556C91.2489 -0.00394444 90.8619 0.00315556 90.4759 0.00315556H40.0832C39.9438 0.00315556 39.8023 -0.0018442 39.6632 0.0096558C39.1389 0.0554558 38.6511 0.296856 38.2966 0.685756C37.942 1.07476 37.7468 1.58276 37.7497 2.10906C37.7452 2.75666 37.7497 3.40436 37.7497 4.05196V37.4398C37.7497 38.034 37.7402 38.6292 37.7497 39.2234C37.7534 39.7721 37.9721 40.2976 38.3589 40.6869C38.7457 41.0762 39.2696 41.2984 39.8184 41.3058C39.9302 41.3077 40.0423 41.3058 40.1541 41.3058L91.6349 41.3059C92.0109 41.3059 92.0109 40.7225 91.6349 40.7225Z" fill="black"/>
<path d="M38.0414 38.6402V26.0068L50.5238 12.5166C50.9228 12.0854 51.4051 11.7396 51.9415 11.5001C52.4779 11.2605 53.0569 11.1323 53.6449 11.123C54.2319 11.1137 54.8149 11.2236 55.3589 11.4461C55.9029 11.6686 56.3959 11.999 56.8079 12.4174L69.5329 25.3263L77.6979 17.1611C78.5039 16.3547 79.5949 15.8976 80.7359 15.8885C81.8759 15.8793 82.9749 16.3189 83.7939 17.1123L93.4109 26.4263V43.6791H38.1013L38.0414 38.6402Z" fill="#389B48"/>
<path d="M38.3329 38.6401V26.0066L38.2475 26.2129L39.6782 24.6667L43.0344 21.0395L46.912 16.8488L49.9072 13.6119C50.6632 12.7948 51.3598 11.9603 52.4721 11.6075C53.1039 11.4074 53.7739 11.3637 54.4259 11.48C55.0779 11.5964 55.6919 11.8694 56.2149 12.2755C56.4619 12.4826 56.6959 12.7048 56.9149 12.9409L59.4619 15.525L63.3519 19.4713L67.1159 23.2896L69.2269 25.4319L69.3259 25.5324C69.3819 25.5861 69.4559 25.6161 69.5329 25.6161C69.6099 25.6161 69.6839 25.5861 69.7389 25.5324L73.4889 21.7821C74.9379 20.3337 76.3859 18.8853 77.8339 17.4369C78.3549 16.9008 79.0119 16.5165 79.7339 16.3251C80.4569 16.1337 81.2179 16.1424 81.9349 16.3502C82.8079 16.6098 83.4349 17.1706 84.0659 17.7818L89.0099 22.5705L91.6639 25.1408C92.1519 25.6132 92.6219 26.1213 93.1359 26.5659C93.1599 26.5866 93.1809 26.6103 93.2039 26.6323L93.1189 26.4261V43.679L93.4099 43.3873H40.3492C39.6356 43.3873 38.9055 43.3425 38.1928 43.3873C38.1626 43.3892 38.1316 43.3873 38.1012 43.3873L38.3929 43.679L38.3405 39.2782L38.3329 38.6401C38.3284 38.265 37.7452 38.264 37.7496 38.6401L37.802 43.0408L37.8096 43.679C37.8107 43.756 37.8418 43.8295 37.8963 43.8839C37.9507 43.9384 38.0242 43.9695 38.1012 43.9706H91.1619C91.8809 43.9706 92.6009 43.984 93.3189 43.9706C93.3489 43.97 93.3799 43.9706 93.4099 43.9706C93.4869 43.9695 93.5609 43.9385 93.6149 43.884C93.6699 43.8295 93.7009 43.756 93.7019 43.679V27.0162C93.7019 26.757 93.7729 26.3868 93.5809 26.1849C92.6449 25.2046 91.6259 24.2919 90.6529 23.3493L86.0309 18.8727L84.4419 17.3339C84.0539 16.9247 83.6209 16.5618 83.1499 16.2525C82.4809 15.8582 81.7249 15.6361 80.9499 15.6061C80.1739 15.576 79.4039 15.7391 78.7069 16.0805C78.0759 16.3906 77.5869 16.859 77.0989 17.3473L73.1739 21.272L69.5299 24.916L69.3259 25.12H69.7389L67.2339 22.5791L62.0659 17.3359L57.7519 12.9595C57.5059 12.7103 57.2619 12.4592 57.0149 12.2118C56.4029 11.5991 55.6339 11.1679 54.7919 10.9661C53.9499 10.7642 53.0689 10.7997 52.2454 11.0685C50.7614 11.569 49.7859 12.8848 48.7594 13.9942L44.0386 19.0961L39.3416 24.1723L38.0419 25.5769C37.9745 25.6497 37.8968 25.7201 37.8364 25.7991C37.7272 25.9418 37.7496 26.0935 37.7496 26.2624V38.6401C37.7496 39.0153 38.3329 39.016 38.3329 38.6401Z" fill="black"/>
<path d="M68.8399 12.9839C71.0059 12.9839 72.7618 11.2279 72.7618 9.06189C72.7618 6.89589 71.0059 5.13989 68.8399 5.13989C66.6739 5.13989 64.9178 6.89589 64.9178 9.06189C64.9178 11.2279 66.6739 12.9839 68.8399 12.9839Z" fill="#FFC41F"/>
<path d="M72.4709 9.06146C72.4709 9.80886 72.2389 10.538 71.8089 11.1492C71.3789 11.7604 70.7709 12.2239 70.0669 12.4764C69.3639 12.729 68.5999 12.7583 67.8789 12.5602C67.1579 12.3622 66.5159 11.9466 66.0409 11.3701C65.5649 10.7935 65.2789 10.0843 65.2209 9.33906C65.1639 8.59386 65.3379 7.84906 65.7189 7.20636C66.1009 6.56376 66.6719 6.05456 67.3529 5.74826C68.0349 5.44206 68.7949 5.35376 69.5289 5.49536C70.3539 5.66116 71.0969 6.10626 71.6329 6.75576C72.1689 7.40526 72.4649 8.21946 72.4709 9.06146C72.4729 9.43666 73.0569 9.43756 73.0539 9.06146C73.0569 7.96986 72.6369 6.91966 71.8819 6.13096C71.1269 5.34216 70.0969 4.87606 69.0059 4.83026C67.9149 4.78446 66.8489 5.16256 66.0309 5.88526C65.2129 6.60796 64.7069 7.61926 64.6179 8.70716C64.5279 9.79506 64.8639 10.8753 65.5529 11.7215C66.2429 12.5676 67.2329 13.114 68.3169 13.2463C69.4009 13.3785 70.4929 13.0862 71.3659 12.4307C72.2389 11.7753 72.8239 10.8074 72.9989 9.72996C73.0339 9.50866 73.0519 9.28526 73.0539 9.06146C73.0569 8.68596 72.4729 8.68556 72.4709 9.06146Z" fill="black"/>
<path d="M38.1937 107.456L34.457 113.344L26.7351 110.351L32.2075 101.297" fill="#FC7F3A"/>
<path d="M37.9421 107.308L36.68 109.297L34.6679 112.468L34.2054 113.197L34.5348 113.063L31.9159 112.048L27.7648 110.439L26.8128 110.07L26.9871 110.498L28.8435 107.427L31.7807 102.568L32.4596 101.444C32.6543 101.122 32.15 100.829 31.9559 101.15L30.0994 104.221L27.1622 109.081L26.4834 110.204C26.4617 110.242 26.449 110.286 26.4462 110.33C26.4435 110.374 26.4507 110.419 26.4675 110.46C26.4842 110.501 26.51 110.538 26.5429 110.568C26.5758 110.597 26.615 110.619 26.6576 110.632L29.2766 111.647L33.4275 113.257L34.3796 113.626C34.4416 113.642 34.5074 113.638 34.5668 113.614C34.6263 113.59 34.6762 113.547 34.709 113.492L35.9711 111.503L37.9832 108.332L38.4456 107.603C38.6474 107.285 38.1429 106.992 37.9421 107.308Z" fill="black"/>
<path d="M27.5655 108.176L23.4554 114.714L37.9333 123.901C37.9333 123.901 40.7888 119.946 35.6576 116.082C35.1971 115.733 34.8861 115.222 34.7872 114.652C34.6883 114.083 34.8089 113.497 35.1246 113.012C35.3089 112.728 35.459 112.498 35.5808 112.313C35.6456 112.215 35.6902 112.104 35.7119 111.988C35.7335 111.872 35.7319 111.753 35.7071 111.638C35.6823 111.523 35.6348 111.413 35.5673 111.317C35.4998 111.22 35.4137 111.138 35.3141 111.074L34.6945 110.681L32.4007 110.652C31.8192 110.645 31.2514 110.475 30.7619 110.161C30.2724 109.847 29.8808 109.402 29.6317 108.876L29.3501 108.282C29.2718 108.117 29.1506 107.976 28.9991 107.874C28.8477 107.772 28.6715 107.712 28.4891 107.701C28.3067 107.69 28.1247 107.729 27.9622 107.812C27.7998 107.896 27.6627 108.022 27.5655 108.176Z" fill="#458DC9"/>
<path d="M27.3139 108.029L25.9201 110.247L23.7112 113.76L23.2039 114.567C23.1661 114.634 23.1559 114.713 23.1755 114.788C23.195 114.862 23.2427 114.926 23.3085 114.966L24.7526 115.883L28.204 118.073L32.3937 120.731L36.0024 123.021C36.5861 123.391 37.16 123.794 37.7606 124.137C37.7694 124.142 37.7778 124.147 37.7863 124.153C37.8535 124.19 37.9325 124.2 38.0069 124.181C38.0812 124.161 38.1451 124.114 38.1854 124.048C38.6756 123.367 38.9237 122.463 38.9977 121.64C39.1817 119.595 38.053 117.765 36.5703 116.452C36.1109 116.045 35.5537 115.732 35.2631 115.171C35.0328 114.718 34.9834 114.195 35.1248 113.706C35.2188 113.429 35.3543 113.166 35.5265 112.929C35.7079 112.696 35.8568 112.439 35.969 112.166C36.041 111.915 36.0292 111.647 35.9353 111.403C35.8415 111.159 35.6708 110.953 35.449 110.815C35.3164 110.727 35.18 110.644 35.0455 110.559C34.9432 110.473 34.8208 110.415 34.6897 110.39C34.4612 110.374 34.2282 110.384 33.9993 110.381C33.389 110.373 32.7648 110.404 32.1564 110.348C31.1065 110.252 30.2771 109.559 29.8369 108.63C29.6828 108.305 29.5553 107.948 29.2697 107.713C29.1255 107.592 28.9571 107.504 28.776 107.455C28.5948 107.405 28.405 107.395 28.2196 107.425C28.0341 107.455 27.8573 107.524 27.7011 107.629C27.5448 107.733 27.4128 107.87 27.3139 108.029C27.1067 108.344 27.6117 108.636 27.8176 108.324C27.8918 108.21 27.9962 108.118 28.1192 108.06C28.2422 108.002 28.379 107.979 28.5143 107.994C28.6433 108.012 28.7656 108.062 28.8693 108.141C28.9729 108.22 29.0543 108.325 29.1056 108.445C29.3742 108.987 29.6028 109.519 30.0425 109.955C30.632 110.536 31.4114 110.885 32.2375 110.938C32.6173 110.963 33.0016 110.952 33.382 110.957L34.6948 110.973L34.5477 110.933L34.9926 111.216C35.1649 111.297 35.3058 111.432 35.3936 111.602C35.5156 111.903 35.347 112.139 35.1878 112.382C34.9618 112.693 34.771 113.027 34.6191 113.38C34.3873 114.023 34.4179 114.732 34.7044 115.352C35.0359 116.084 35.7352 116.473 36.3049 116.997C37.2483 117.865 38.0396 118.938 38.3252 120.206C38.5048 121.013 38.4643 121.853 38.2081 122.638C38.1801 122.727 38.1498 122.815 38.1172 122.902C38.1033 122.938 38.0889 122.975 38.0744 123.012C38.0674 123.029 38.0601 123.047 38.0529 123.064C38.0488 123.074 38.0708 123.025 38.0436 123.085C37.9899 123.205 37.9342 123.323 37.8721 123.438C37.8156 123.548 37.752 123.653 37.6819 123.754L38.0809 123.649L36.6368 122.733L33.1853 120.543L28.9956 117.884L25.3869 115.595L24.1895 114.835C24.0057 114.718 23.8231 114.577 23.6286 114.479C23.6197 114.474 23.6114 114.468 23.6029 114.463L23.7076 114.862L25.1013 112.644L27.3102 109.131L27.8176 108.324C28.0179 108.005 27.5134 107.712 27.3139 108.029Z" fill="black"/>
<path d="M34.8131 114.469C34.6814 114.464 34.5495 114.474 34.4204 114.501C34.1619 114.546 33.9175 114.651 33.7066 114.807C33.5324 114.937 33.3831 115.097 33.2657 115.28C33.2273 115.347 33.2168 115.427 33.2363 115.501C33.2559 115.576 33.304 115.64 33.3704 115.68C33.4375 115.717 33.5165 115.727 33.5909 115.707C33.6653 115.688 33.7292 115.64 33.7694 115.575C33.7838 115.553 33.7984 115.53 33.8138 115.509C33.8213 115.498 33.8289 115.488 33.8367 115.477C33.8104 115.511 33.807 115.516 33.8263 115.491C33.8581 115.454 33.8897 115.418 33.9244 115.383C33.9572 115.351 33.992 115.321 34.0272 115.291C34.0511 115.272 34.0446 115.277 34.0076 115.305C34.0164 115.299 34.0252 115.292 34.0341 115.286C34.0472 115.277 34.0605 115.267 34.074 115.258C34.1422 115.214 34.2137 115.175 34.288 115.142C34.3344 115.121 34.2138 115.171 34.2841 115.144C34.3013 115.138 34.3185 115.131 34.3359 115.125C34.367 115.115 34.3984 115.105 34.4301 115.096C34.4887 115.08 34.5479 115.069 34.6077 115.059C34.6726 115.048 34.5355 115.067 34.5809 115.062C34.5935 115.061 34.6061 115.059 34.6187 115.058C34.6399 115.056 34.661 115.054 34.6822 115.053C34.7258 115.05 34.7695 115.05 34.8131 115.052C34.8904 115.052 34.9644 115.021 35.019 114.967C35.0736 114.912 35.1045 114.838 35.1048 114.761C35.1029 114.684 35.0716 114.611 35.0173 114.557C34.963 114.502 34.8899 114.471 34.8131 114.469Z" fill="black"/>
<path d="M35.4419 115.591C35.3102 115.585 35.1783 115.596 35.0492 115.623C34.7907 115.668 34.5463 115.772 34.3354 115.929C34.1613 116.059 34.0119 116.219 33.8946 116.402C33.8562 116.469 33.8456 116.549 33.8652 116.623C33.8847 116.698 33.9329 116.762 33.9992 116.801C34.0664 116.839 34.1454 116.849 34.2197 116.829C34.2941 116.81 34.358 116.762 34.3982 116.697C34.4126 116.674 34.4272 116.652 34.4426 116.631C34.4501 116.62 34.4578 116.61 34.4656 116.599C34.4393 116.633 34.4358 116.638 34.4551 116.613C34.4869 116.576 34.5185 116.539 34.5533 116.505C34.5861 116.472 34.6209 116.442 34.6561 116.412C34.68 116.393 34.6734 116.398 34.6364 116.427C34.6452 116.421 34.654 116.414 34.6629 116.408C34.6761 116.398 34.6894 116.389 34.7029 116.38C34.771 116.336 34.8425 116.297 34.9168 116.264C34.9632 116.242 34.8426 116.293 34.913 116.266C34.9301 116.259 34.9474 116.253 34.9647 116.247C34.9958 116.236 35.0272 116.227 35.059 116.218C35.1175 116.202 35.1767 116.19 35.2365 116.18C35.3014 116.169 35.1643 116.188 35.2098 116.184C35.2224 116.182 35.235 116.181 35.2476 116.18C35.2687 116.177 35.2898 116.176 35.311 116.175C35.3546 116.171 35.3984 116.171 35.442 116.174C35.5192 116.174 35.5932 116.143 35.6478 116.088C35.7025 116.034 35.7333 115.96 35.7336 115.882C35.7318 115.806 35.7005 115.733 35.6462 115.678C35.5919 115.624 35.5186 115.593 35.4419 115.591Z" fill="black"/>
<path d="M36.4045 116.511C36.2727 116.505 36.1408 116.516 36.0118 116.543C35.7533 116.588 35.5088 116.693 35.2979 116.849C35.1238 116.979 34.9745 117.139 34.8571 117.322C34.8187 117.389 34.8081 117.469 34.8277 117.543C34.8473 117.618 34.8954 117.682 34.9617 117.721C35.0289 117.759 35.1079 117.769 35.1823 117.749C35.2566 117.73 35.3206 117.682 35.3608 117.617C35.3752 117.594 35.3898 117.572 35.4052 117.551C35.4127 117.54 35.4203 117.53 35.4281 117.519C35.4018 117.553 35.3984 117.558 35.4177 117.533C35.4495 117.496 35.4811 117.459 35.5158 117.425C35.5486 117.392 35.5834 117.362 35.6186 117.332C35.6425 117.313 35.636 117.318 35.599 117.347C35.6078 117.341 35.6166 117.334 35.6255 117.328C35.6386 117.318 35.6519 117.309 35.6654 117.3C35.7336 117.256 35.8051 117.217 35.8794 117.184C35.9258 117.162 35.8052 117.213 35.8755 117.186C35.8927 117.179 35.9099 117.173 35.9273 117.167C35.9584 117.156 35.9898 117.147 36.0215 117.138C36.08 117.122 36.1393 117.11 36.1991 117.1C36.264 117.089 36.1269 117.108 36.1723 117.104C36.1849 117.102 36.1975 117.101 36.2101 117.1C36.2312 117.097 36.2524 117.096 36.2736 117.095C36.3172 117.092 36.3609 117.091 36.4045 117.094C36.4818 117.094 36.5558 117.063 36.6104 117.008C36.665 116.954 36.6959 116.88 36.6962 116.802C36.6943 116.726 36.663 116.653 36.6087 116.598C36.5544 116.544 36.4813 116.513 36.4045 116.511Z" fill="black"/>
<path d="M38.6275 122.177C38.5102 122.791 38.2744 123.377 37.9333 123.901L23.4554 114.714L24.0976 113.667L24.0896 113.662L25.238 111.852C25.238 111.852 27.5934 112.439 28.8729 115.429C30.0564 116.997 31.4538 115.796 32.9485 117.017C34.4432 118.237 33.5619 118.431 34.5501 119.045C34.5501 119.045 35.6881 119.844 36.9163 119.625C38.1446 119.406 38.9221 120.381 38.6275 122.177Z" fill="white"/>
<path d="M38.3464 122.1C38.2402 122.691 38.014 123.254 37.6816 123.754L38.0807 123.649L36.6366 122.733L33.1852 120.543L28.9955 117.885L25.3868 115.595L24.1894 114.835C24.0056 114.718 23.823 114.578 23.6285 114.479C23.6196 114.475 23.6113 114.468 23.6028 114.463L23.7075 114.862L24.3497 113.814C24.3873 113.747 24.3975 113.668 24.378 113.593C24.3585 113.519 24.3108 113.455 24.245 113.415L24.237 113.41L24.3416 113.809L25.4901 111.999L25.1607 112.133C25.2101 112.146 25.2587 112.162 25.3069 112.179C25.3612 112.197 25.4146 112.218 25.4682 112.239C25.4799 112.243 25.4914 112.248 25.503 112.253C25.5668 112.278 25.4417 112.226 25.5076 112.254C25.5486 112.272 25.5895 112.29 25.63 112.309C26.0659 112.513 26.4722 112.774 26.8378 113.087C27.3844 113.558 27.847 114.119 28.2057 114.745C28.3091 114.923 28.4049 115.106 28.4933 115.293C28.539 115.41 28.5954 115.522 28.6617 115.629C28.7374 115.732 28.8211 115.829 28.9119 115.919C29.1916 116.2 29.5385 116.406 29.9198 116.515C30.6134 116.713 31.3543 116.599 32.0414 116.833C32.4552 116.993 32.8277 117.245 33.1319 117.568C33.2485 117.677 33.3549 117.796 33.4495 117.925C33.4822 117.971 33.5133 118.019 33.5416 118.069C33.5565 118.095 33.5708 118.121 33.5844 118.148C33.5894 118.159 33.6344 118.262 33.6102 118.202C33.6771 118.367 33.7133 118.542 33.7936 118.703C33.9144 118.917 34.0876 119.098 34.2971 119.228C34.7314 119.528 35.2184 119.745 35.7326 119.866C35.9622 119.92 36.1968 119.949 36.4325 119.955C36.6668 119.958 36.8898 119.908 37.1214 119.891C37.3975 119.857 37.6761 119.93 37.9005 120.094C38.4594 120.529 38.4489 121.451 38.3464 122.1C38.3282 122.174 38.3392 122.253 38.377 122.319C38.4149 122.386 38.4768 122.436 38.55 122.458C38.6246 122.478 38.704 122.468 38.7712 122.43C38.8383 122.392 38.8877 122.329 38.9088 122.255C39.0265 121.51 39.0462 120.646 38.5949 119.998C38.4182 119.748 38.1753 119.553 37.8935 119.433C37.6117 119.313 37.3021 119.274 36.9995 119.32C36.5772 119.389 36.1455 119.369 35.731 119.264C35.4297 119.18 35.1404 119.058 34.87 118.9C34.7238 118.822 34.5863 118.728 34.4596 118.62C34.4191 118.584 34.3816 118.544 34.3477 118.501C34.387 118.552 34.3261 118.461 34.3168 118.446C34.3058 118.428 34.2975 118.408 34.2882 118.389C34.3223 118.458 34.2917 118.398 34.2863 118.383C34.2731 118.343 34.2596 118.304 34.2469 118.264C34.0456 117.634 33.6192 117.175 33.1039 116.77C32.7517 116.488 32.3405 116.289 31.9007 116.187C31.52 116.116 31.1346 116.073 30.7476 116.058C30.411 116.05 30.0794 115.975 29.7724 115.836C29.6067 115.75 29.4556 115.639 29.3243 115.507C29.2501 115.439 29.1833 115.364 29.1249 115.282C29.0579 115.154 28.9976 115.023 28.9441 114.889C28.5916 114.167 28.1193 113.51 27.5473 112.946C26.9429 112.357 26.1513 111.781 25.3158 111.571C25.2538 111.555 25.1884 111.56 25.1291 111.584C25.0699 111.608 25.0199 111.65 24.9864 111.705L23.838 113.515C23.8002 113.582 23.79 113.661 23.8095 113.735C23.8291 113.81 23.8768 113.874 23.9426 113.914L23.9506 113.919L23.846 113.52L23.2038 114.567C23.1661 114.635 23.1559 114.714 23.1755 114.788C23.195 114.863 23.2427 114.927 23.3084 114.967L24.7525 115.883L28.2039 118.073L32.3936 120.731L36.0023 123.021C36.586 123.392 37.1599 123.794 37.7606 124.137C37.7694 124.142 37.7777 124.148 37.7863 124.153C37.8535 124.191 37.9325 124.2 38.0068 124.181C38.0811 124.162 38.1451 124.114 38.1853 124.049C38.5456 123.506 38.7917 122.896 38.9088 122.255C38.9849 121.888 38.4228 121.732 38.3464 122.1Z" fill="black"/>
<path d="M53.4029 59.4843L52.4062 87.4588L40.9866 111.831L28.5023 104.926C28.5023 104.926 36.8289 88.5008 40.2202 83.9328L40.8069 71.0243C40.9248 68.4323 41.7025 65.9134 43.0663 63.706L46.8114 57.645" fill="#EA2F2F"/>
<path d="M53.1109 59.4845L53.0149 62.1722L52.7839 68.6607L52.5025 76.5618L52.2521 83.5938L52.1197 87.3108C52.1149 87.3508 52.1135 87.3898 52.1155 87.4298C52.1285 87.5178 52.069 87.3808 52.1527 87.3148C52.1069 87.3508 52.0736 87.4838 52.0497 87.5348L51.4057 88.9088L48.855 94.3528L45.5295 101.45L42.4846 107.949L40.8118 111.519L40.7346 111.684L41.1337 111.579L36.9205 109.249L30.1995 105.532L28.6494 104.675L28.7541 105.074C29.1058 104.38 29.4606 103.688 29.8183 102.997C30.686 101.314 31.563 99.6368 32.4492 97.9638C33.5485 95.8908 34.6668 93.8268 35.8041 91.7728C36.8459 89.9018 37.9049 88.0378 39.0401 86.2218C39.4617 85.5468 39.8932 84.8768 40.3605 84.2328C40.4577 84.1128 40.5128 83.9648 40.5173 83.8108L40.5411 83.2868L40.7597 78.4758L41.0139 72.8818C41.0804 71.4205 41.1113 69.9641 41.4264 68.5278C41.791 66.8736 42.4311 65.2924 43.3198 63.8503C43.5807 63.4258 43.8426 63.0019 44.1055 62.5786L46.8663 58.1106L47.063 57.7922C47.2609 57.472 46.7565 57.1787 46.5593 57.4978L44.3201 61.1219C43.3856 62.6345 42.3709 64.1245 41.6849 65.7711C41.0105 67.3966 40.6174 69.125 40.5224 70.8823C40.5051 71.1983 40.4929 71.5147 40.4786 71.8309L40.2525 76.8038L40.0016 82.3248L39.9354 83.7798C39.9303 83.8228 39.9284 83.8658 39.9295 83.9088C39.9299 83.9128 39.9261 83.9288 39.9285 83.9308C39.8874 83.8968 40.0086 83.7948 39.9282 83.8408C39.8972 83.8578 39.8672 83.9238 39.8466 83.9518C39.6335 84.2468 39.4288 84.5468 39.2281 84.8498C38.1302 86.5068 37.1344 88.2328 36.1535 89.9608C34.9898 92.0108 33.8617 94.0818 32.7493 96.1608C31.7699 97.9908 30.8027 99.8278 29.8479 101.671C29.3356 102.659 28.8266 103.649 28.321 104.64C28.2974 104.687 28.2739 104.733 28.2504 104.779C28.2127 104.846 28.2026 104.925 28.2221 105C28.2416 105.074 28.2893 105.138 28.355 105.178L32.5682 107.508L39.2892 111.226L40.8393 112.083C40.9062 112.121 40.9856 112.132 41.0602 112.112C41.1348 112.092 41.1988 112.044 41.2383 111.978L42.4231 109.45L45.2383 103.442L48.6029 96.2608L51.4437 90.1978L52.3181 88.3318C52.4301 88.0918 52.5632 87.8538 52.6575 87.6068C52.7479 87.3708 52.7119 87.0638 52.7209 86.8158L52.7879 84.9208L53.0169 78.4868L53.2999 70.5667L53.5509 63.5056L53.6879 59.66L53.6939 59.4846C53.7079 59.1091 53.1239 59.1096 53.1109 59.4845Z" fill="black"/>
<path d="M30.49 101.15L31.7348 101.792L34.7077 103.324L38.3208 105.186L41.4451 106.796C41.9472 107.054 42.444 107.347 42.9602 107.577C42.9678 107.58 42.9752 107.584 42.9826 107.588C43.1491 107.674 43.2969 107.422 43.1298 107.336L41.885 106.695L38.9121 105.163L35.299 103.301L32.1747 101.691C31.6726 101.432 31.1758 101.14 30.6596 100.91C30.652 100.906 30.6446 100.902 30.6372 100.898C30.4706 100.813 30.3229 101.064 30.49 101.15Z" fill="black"/>
<path d="M40.9526 69.8001H44.1291L43.8374 69.5084L43.6079 72.6626L43.4807 74.4108C43.4374 75.0058 43.2889 75.5538 42.8484 75.9898C42.4574 76.3728 41.9321 76.5888 41.3844 76.5908C41.1064 76.5928 40.8284 76.5908 40.5504 76.5908C40.1751 76.5908 40.1745 77.1738 40.5504 77.1738C41.3447 77.1738 42.1201 77.2068 42.8196 76.7548C43.178 76.5188 43.4761 76.2028 43.6897 75.8308C43.9033 75.4588 44.0264 75.0418 44.0492 74.6138C44.142 73.3648 44.2329 72.1152 44.3219 70.8656L44.4207 69.5084C44.4199 69.4313 44.3889 69.3575 44.3344 69.303C44.2799 69.2485 44.2061 69.2175 44.129 69.2167H40.9526C40.5772 69.2167 40.5766 69.8001 40.9526 69.8001Z" fill="black"/>
<path d="M58.7919 111.294V118.269L50.6683 119.878L50.4384 109.302" fill="#FC7F3A"/>
<path d="M58.501 111.294V118.269L58.715 117.988L55.959 118.533L51.5923 119.399L50.5906 119.597L50.9598 119.878L50.8818 116.29L50.7585 110.614L50.73 109.302C50.7218 108.927 50.1385 108.926 50.1466 109.302L50.2246 112.89L50.348 118.566L50.3765 119.878C50.3774 119.923 50.3883 119.967 50.4085 120.007C50.4287 120.046 50.4576 120.081 50.4931 120.108C50.5286 120.135 50.5698 120.154 50.6135 120.163C50.6573 120.172 50.7025 120.17 50.7457 120.159L53.501 119.614L57.868 118.748L58.87 118.55C58.931 118.533 58.985 118.496 59.024 118.445C59.062 118.394 59.083 118.332 59.084 118.269V111.294C59.084 110.919 58.501 110.918 58.501 111.294Z" fill="black"/>
<path d="M50.2042 117.597L50.2367 125.32H67.3829C67.3829 125.32 67.6759 120.451 61.2729 119.937C60.6969 119.889 60.1599 119.624 59.7719 119.196C59.3829 118.768 59.1709 118.209 59.1779 117.631C59.1809 117.292 59.1849 117.018 59.1889 116.796C59.1909 116.678 59.1689 116.561 59.1249 116.451C59.0809 116.342 59.0159 116.242 58.9329 116.158C58.8509 116.074 58.7519 116.007 58.6429 115.962C58.5339 115.916 58.4179 115.893 58.2999 115.893H57.5659L55.6139 117.097C55.1189 117.403 54.5479 117.563 53.9659 117.56C53.3849 117.557 52.8159 117.391 52.3237 117.081L51.7678 116.731C51.6132 116.633 51.4353 116.579 51.2526 116.574C51.07 116.569 50.8893 116.613 50.7295 116.701C50.5696 116.79 50.4366 116.92 50.3442 117.077C50.2518 117.235 50.2034 117.415 50.2042 117.597Z" fill="#458DC9"/>
<path d="M49.9129 117.598L49.9239 120.216L49.9414 124.367L49.9454 125.32C49.9465 125.397 49.9776 125.47 50.0321 125.525C50.0865 125.579 50.1601 125.61 50.2371 125.612H65.2709C65.9629 125.612 66.6609 125.637 67.3529 125.612C67.3629 125.611 67.3739 125.612 67.3839 125.612C67.4609 125.61 67.5339 125.579 67.5879 125.524C67.6429 125.47 67.6739 125.397 67.6749 125.32C67.6929 124.64 67.5639 123.964 67.2969 123.338C66.6999 121.856 65.4939 120.806 64.0199 120.231C63.5149 120.037 62.9919 119.892 62.4579 119.798C62.1339 119.74 61.8059 119.696 61.4779 119.664C61.1989 119.651 60.9249 119.592 60.6659 119.491C60.4189 119.382 60.1969 119.225 60.0129 119.028C59.8279 118.832 59.6849 118.6 59.5919 118.348C59.4999 118.071 59.4589 117.78 59.4709 117.489C59.4749 117.168 59.5219 116.811 59.4449 116.495C59.3749 116.233 59.2189 116.002 59.0009 115.839C58.7829 115.677 58.5169 115.593 58.2459 115.601C58.0619 115.601 57.8779 115.601 57.6949 115.601C57.5889 115.593 57.4829 115.613 57.3869 115.661C56.7919 115.995 56.2199 116.381 55.6389 116.74C55.2939 116.968 54.9099 117.13 54.5059 117.22C53.8439 117.346 53.1599 117.23 52.5761 116.893C52.2707 116.716 51.9872 116.476 51.6538 116.354C51.4559 116.286 51.2445 116.266 51.0372 116.296C50.83 116.326 50.633 116.405 50.4626 116.527C50.2922 116.648 50.1534 116.809 50.0577 116.995C49.9621 117.182 49.9125 117.388 49.9129 117.598C49.906 117.973 50.4893 117.973 50.4962 117.598C50.4978 117.465 50.5352 117.336 50.6043 117.223C50.6734 117.11 50.7717 117.018 50.8888 116.956C51.0059 116.894 51.1375 116.865 51.2697 116.872C51.4019 116.879 51.5299 116.921 51.64 116.995C52.1565 117.31 52.639 117.639 53.2439 117.771C54.1059 117.957 55.0069 117.806 55.7609 117.349C56.0619 117.167 56.3599 116.98 56.6589 116.796L57.7129 116.145L57.5659 116.185C57.9719 116.185 58.5619 116.067 58.8129 116.475C58.8869 116.62 58.9149 116.784 58.8949 116.946C58.8909 117.191 58.8829 117.437 58.8869 117.683C58.8929 118.07 58.9849 118.451 59.1539 118.8C59.3229 119.144 59.5669 119.445 59.8669 119.683C60.1679 119.92 60.5179 120.088 60.8909 120.173C61.3019 120.263 61.7309 120.265 62.1469 120.334C62.5099 120.393 62.8699 120.474 63.2239 120.576C64.2949 120.888 65.2819 121.432 66.0039 122.283C66.2629 122.596 66.4809 122.941 66.6539 123.309C66.7239 123.456 66.7849 123.607 66.8349 123.761C66.8879 123.92 66.9339 124.081 66.9729 124.244C67.0079 124.395 67.0349 124.547 67.0589 124.7C67.0679 124.762 67.0499 124.627 67.0569 124.687C67.0589 124.703 67.0609 124.719 67.0629 124.734C67.0669 124.769 67.0709 124.804 67.0739 124.838C67.0789 124.891 67.0829 124.943 67.0869 124.996C67.0949 125.104 67.0969 125.212 67.0919 125.32L67.3839 125.028H50.9318C50.7143 125.028 50.4842 125.006 50.2675 125.028C50.2576 125.029 50.2471 125.028 50.2371 125.028L50.5287 125.32L50.5177 122.701L50.5002 118.551L50.4962 117.597C50.4947 117.222 49.9113 117.222 49.9129 117.598Z" fill="black"/>
<path d="M47.2661 70.9031C46.8501 76.5777 49.2541 114.351 49.2541 114.351L64.1569 114.423L59.8649 60.4807L49.0587 59.0245" fill="#EA2F2F"/>
<path d="M46.9743 70.9035C46.9139 71.7383 46.9219 72.5795 46.9282 73.4158C46.938 74.7348 46.9728 76.0538 47.014 77.3718C47.0662 79.0428 47.1292 80.7128 47.2028 82.3828C47.2834 84.2758 47.3709 86.1678 47.4652 88.0588C47.5629 90.0438 47.6653 92.0278 47.7722 94.0108C47.8771 95.9668 47.9851 97.9228 48.0963 99.8778C48.1972 101.656 48.3001 103.433 48.4051 105.211C48.4925 106.691 48.5811 108.17 48.6711 109.65C48.7351 110.701 48.7998 111.753 48.8652 112.805C48.8959 113.299 48.9189 113.794 48.9581 114.288C48.9597 114.309 48.9608 114.33 48.9622 114.352C48.9637 114.428 48.9949 114.502 49.0493 114.556C49.1037 114.611 49.1769 114.642 49.2538 114.643L54.3089 114.667L62.306 114.706L64.1569 114.715C64.2339 114.714 64.3079 114.683 64.3629 114.628C64.417 114.574 64.4479 114.5 64.4489 114.423L64.334 112.983L64.021 109.048L63.5589 103.246L62.996 96.1688L62.3769 88.3898L61.7549 80.5658L61.174 73.2718L60.6839 67.1072L60.331 62.6737C60.275 61.9732 60.225 61.272 60.164 60.5719C60.161 60.5417 60.1589 60.5114 60.1569 60.4811C60.1559 60.4175 60.134 60.3559 60.096 60.3052C60.057 60.2546 60.004 60.2177 59.943 60.1999L56.291 59.7077L50.4706 58.9234L49.1362 58.7436C48.7691 58.6941 48.6102 59.2561 48.9811 59.3061L52.6332 59.7982L58.453 60.5824L59.788 60.7623L59.5729 60.4811L59.688 61.9207L60.0009 65.8563L60.4629 71.6581L61.026 78.7348L61.645 86.5138L62.2669 94.3378L62.8479 101.632L63.3379 107.797L63.691 112.23C63.746 112.923 63.75 113.644 63.858 114.332C63.863 114.362 63.8629 114.393 63.8649 114.423L64.1569 114.131L59.1019 114.107L51.1051 114.069L49.2539 114.06L49.5456 114.352C49.5241 114.014 49.5029 113.676 49.4818 113.338C49.4239 112.411 49.3664 111.483 49.3098 110.556C49.2249 109.169 49.1413 107.783 49.0588 106.396C48.9567 104.679 48.8562 102.963 48.7577 101.246C48.6478 99.3298 48.5406 97.4138 48.4359 95.4968C48.3271 93.4998 48.2221 91.5038 48.1208 89.5068C48.0235 87.5808 47.9315 85.6538 47.8447 83.7268C47.7674 81.9908 47.6976 80.2538 47.6353 78.5168C47.5861 77.1008 47.5434 75.6838 47.5216 74.2668C47.5067 73.2998 47.4942 72.3308 47.5326 71.3644C47.5388 71.2106 47.5466 71.0569 47.5577 70.9034C47.5848 70.5289 47.0013 70.5307 46.9743 70.9035Z" fill="black"/>
<path d="M59.7039 119.022C59.5909 119.087 59.4859 119.164 59.3919 119.254C59.1839 119.446 59.0229 119.685 58.9239 119.951C58.8569 120.137 58.8229 120.334 58.8239 120.532C58.8239 120.609 58.8539 120.683 58.9089 120.738C58.9639 120.793 59.0379 120.823 59.1149 120.823C59.1929 120.823 59.2669 120.793 59.3209 120.738C59.3759 120.683 59.4069 120.609 59.4069 120.532C59.4069 120.494 59.4079 120.457 59.4109 120.42C59.4119 120.399 59.4149 120.378 59.4169 120.357C59.4199 120.325 59.4119 120.394 59.4119 120.391C59.4149 120.38 59.4149 120.369 59.4169 120.357C59.4289 120.287 59.4479 120.218 59.4709 120.15C59.4759 120.135 59.4809 120.12 59.4869 120.106C59.4899 120.099 59.4929 120.091 59.4949 120.084C59.5049 120.055 59.4789 120.122 59.4809 120.119C59.4969 120.088 59.5089 120.055 59.5249 120.025C59.5539 119.971 59.5849 119.919 59.6199 119.869C59.6279 119.858 59.6349 119.847 59.6429 119.836C59.6469 119.831 59.6509 119.826 59.6549 119.821C59.6729 119.796 59.6249 119.859 59.6289 119.854C59.6469 119.834 59.6639 119.812 59.6819 119.792C59.7139 119.754 59.7489 119.719 59.7849 119.685C59.8169 119.655 59.8489 119.628 59.8819 119.601C59.9319 119.56 59.8169 119.649 59.8729 119.608C59.8859 119.599 59.8979 119.59 59.9109 119.581C59.9389 119.561 59.9689 119.543 59.9989 119.526C60.0649 119.487 60.1129 119.423 60.1329 119.348C60.1519 119.273 60.1419 119.194 60.1029 119.127C60.0629 119.062 59.9989 119.014 59.9249 118.995C59.8509 118.975 59.7719 118.985 59.7039 119.022Z" fill="black"/>
<path d="M60.8359 119.632C60.7229 119.696 60.6179 119.774 60.5239 119.864C60.3149 120.056 60.1549 120.294 60.0559 120.56C59.9879 120.746 59.9539 120.943 59.9549 121.141C59.9549 121.218 59.9859 121.292 60.0399 121.347C60.0949 121.402 60.1689 121.433 60.2469 121.433C60.3239 121.433 60.3979 121.402 60.4529 121.347C60.5079 121.292 60.5379 121.218 60.5379 121.141C60.5379 121.104 60.5399 121.067 60.5419 121.029C60.5439 121.008 60.5459 120.988 60.5479 120.967C60.5509 120.934 60.5429 121.003 60.5439 121.001C60.5459 120.99 60.5459 120.978 60.5479 120.967C60.5609 120.896 60.5789 120.827 60.6019 120.759C60.6069 120.745 60.6129 120.73 60.6179 120.715C60.6209 120.708 60.6239 120.701 60.6269 120.694C60.6369 120.664 60.6099 120.731 60.6119 120.728C60.6279 120.697 60.6409 120.665 60.6569 120.634C60.6849 120.58 60.7169 120.528 60.7509 120.478C60.7589 120.467 60.7669 120.457 60.7749 120.446C60.7789 120.441 60.7829 120.435 60.7869 120.43C60.8039 120.405 60.7559 120.469 60.7609 120.463C60.7789 120.443 60.7949 120.421 60.8129 120.401C60.8459 120.364 60.8809 120.328 60.9169 120.294C60.9479 120.265 60.9809 120.237 61.0139 120.21C61.0639 120.169 60.9479 120.258 61.0039 120.217C61.0169 120.208 61.0299 120.199 61.0429 120.19C61.0709 120.17 61.0999 120.152 61.1299 120.136C61.1969 120.096 61.2449 120.032 61.2639 119.957C61.2839 119.883 61.2729 119.803 61.2349 119.736C61.1949 119.671 61.1309 119.624 61.0559 119.604C60.9819 119.585 60.9029 119.594 60.8359 119.632Z" fill="black"/>
<path d="M62.1419 119.893C62.0289 119.957 61.9239 120.035 61.8299 120.125C61.6209 120.317 61.4609 120.556 61.3619 120.822C61.2939 121.008 61.2599 121.204 61.2609 121.402C61.2609 121.48 61.2919 121.554 61.3459 121.609C61.4009 121.663 61.4749 121.694 61.5529 121.694C61.6299 121.694 61.7039 121.663 61.7589 121.609C61.8139 121.554 61.8439 121.48 61.8439 121.402C61.8439 121.365 61.8459 121.328 61.8479 121.291C61.8499 121.27 61.8519 121.249 61.8539 121.228C61.8569 121.195 61.8489 121.265 61.8499 121.262C61.8519 121.251 61.8519 121.239 61.8539 121.228C61.8669 121.158 61.8849 121.088 61.9079 121.021C61.9129 121.006 61.9189 120.991 61.9239 120.977C61.9269 120.969 61.9299 120.962 61.9329 120.955C61.9429 120.926 61.9159 120.993 61.9179 120.989C61.9339 120.959 61.9469 120.926 61.9629 120.895C61.9909 120.842 62.0229 120.79 62.0579 120.74C62.0649 120.729 62.0729 120.718 62.0809 120.707C62.0849 120.702 62.0889 120.697 62.0929 120.692C62.1099 120.667 62.0619 120.73 62.0669 120.725C62.0849 120.705 62.1009 120.683 62.1189 120.663C62.1519 120.625 62.1869 120.59 62.2229 120.556C62.2539 120.526 62.2869 120.499 62.3199 120.471C62.3699 120.431 62.2539 120.52 62.3099 120.479C62.3229 120.47 62.3359 120.461 62.3489 120.452C62.3769 120.432 62.4059 120.414 62.4359 120.397C62.5029 120.358 62.5509 120.294 62.5699 120.219C62.5899 120.144 62.5789 120.065 62.5409 119.998C62.5009 119.932 62.4369 119.885 62.3619 119.865C62.2879 119.846 62.2089 119.856 62.1419 119.893Z" fill="black"/>
<path d="M67.0459 123.492C67.2759 124.074 67.3909 124.694 67.3839 125.32H50.2369L50.2179 124.091H50.2084V121.947C50.2084 121.947 52.5116 121.181 55.1939 123.02C57.0339 123.71 57.5699 121.948 59.4859 122.177C61.4019 122.407 60.7619 123.043 61.9249 123.032C61.9249 123.032 63.3139 123.097 64.2339 122.254C65.1539 121.411 66.3329 121.818 67.0459 123.492Z" fill="white"/>
<path d="M66.7649 123.57C66.9919 124.125 67.1029 124.72 67.0919 125.32L67.3829 125.028H50.9315C50.714 125.028 50.484 125.006 50.2673 125.028C50.2574 125.029 50.2468 125.028 50.2367 125.028L50.5285 125.32L50.5094 124.091C50.5082 124.014 50.4771 123.941 50.4226 123.886C50.3682 123.832 50.2948 123.801 50.2178 123.799H50.2082L50.4999 124.091V121.948L50.2859 122.229C50.5171 122.158 50.7559 122.114 50.9974 122.1C51.6324 122.048 52.2716 122.105 52.8879 122.267C53.3139 122.377 53.7269 122.531 54.1209 122.727C54.5549 122.942 54.9439 123.278 55.4169 123.396C56.0769 123.561 56.6939 123.418 57.2879 123.113C57.8229 122.839 58.3369 122.5 58.9549 122.455C59.3559 122.434 59.7579 122.482 60.1439 122.594C60.2669 122.626 60.3869 122.669 60.5019 122.723C60.5449 122.744 60.5869 122.768 60.6289 122.793C60.6539 122.808 60.78 122.899 60.7299 122.86C60.8549 122.972 60.9879 123.073 61.1279 123.164C61.3499 123.273 61.5949 123.328 61.8429 123.323C62.3059 123.335 62.7679 123.274 63.2109 123.141C63.6559 123.009 64.0679 122.783 64.4189 122.479C64.6349 122.265 64.9219 122.137 65.2249 122.12C66.0109 122.121 66.5179 123.003 66.7939 123.639C66.8329 123.706 66.8969 123.754 66.9719 123.773C67.0469 123.793 67.1259 123.782 67.1929 123.744C67.2579 123.703 67.3059 123.64 67.3249 123.565C67.3449 123.491 67.335 123.412 67.298 123.345C66.985 122.623 66.4859 121.875 65.7039 121.614C65.4059 121.516 65.085 121.511 64.784 121.601C64.426 121.708 64.1869 121.936 63.8989 122.157C63.3719 122.532 62.7419 122.736 62.0949 122.74C62.0409 122.741 61.9869 122.741 61.9329 122.74C61.8899 122.74 61.8469 122.74 61.8039 122.739C61.7799 122.738 61.7559 122.737 61.7309 122.735C61.7199 122.734 61.6029 122.72 61.6489 122.728C61.5969 122.719 61.5469 122.705 61.4949 122.691C61.4149 122.67 61.5079 122.707 61.4409 122.67C61.4059 122.65 61.3719 122.628 61.3379 122.607C61.3329 122.604 61.2809 122.565 61.3199 122.595C61.3589 122.624 61.2949 122.573 61.2879 122.568C61.1389 122.433 60.9739 122.316 60.7959 122.219C60.4699 122.067 60.1209 121.967 59.7639 121.923C59.3509 121.85 58.9279 121.854 58.5169 121.934C58.1899 122.013 57.8749 122.135 57.5789 122.296C57.0739 122.557 56.5809 122.897 55.9899 122.89C55.8319 122.887 55.6749 122.864 55.5229 122.821C55.2869 122.732 55.0629 122.611 54.8579 122.462C54.4349 122.215 53.9879 122.009 53.5239 121.849C52.7549 121.581 51.9418 121.465 51.1288 121.507C50.7907 121.518 50.4553 121.571 50.1307 121.666C50.0699 121.684 50.0165 121.721 49.978 121.772C49.9395 121.823 49.918 121.884 49.9167 121.947V124.091C49.9178 124.168 49.9489 124.242 50.0033 124.296C50.0578 124.35 50.1314 124.382 50.2084 124.383H50.2178L49.9262 124.091L49.9452 125.32C49.9464 125.397 49.9776 125.47 50.0321 125.525C50.0865 125.579 50.1599 125.61 50.2369 125.611H65.271C65.9629 125.611 66.661 125.637 67.353 125.611C67.363 125.611 67.3729 125.611 67.3829 125.611C67.4599 125.61 67.5339 125.579 67.5879 125.524C67.6419 125.47 67.6729 125.397 67.6749 125.32C67.6889 124.668 67.5709 124.019 67.327 123.414C67.1959 123.067 66.6319 123.217 66.7649 123.57Z" fill="black"/>
<path d="M48.9858 110.175H62.7279C62.9129 110.175 63.1049 110.189 63.2889 110.175C63.2969 110.174 63.3059 110.175 63.3139 110.175C63.3519 110.173 63.3879 110.157 63.4139 110.13C63.4399 110.103 63.4549 110.067 63.4549 110.029C63.4549 109.991 63.4399 109.955 63.4139 109.928C63.3879 109.9 63.3519 109.884 63.3139 109.883H49.5714C49.3864 109.883 49.1952 109.869 49.0106 109.883C49.0024 109.884 48.994 109.883 48.9858 109.883C48.948 109.884 48.9122 109.9 48.886 109.928C48.8597 109.955 48.845 109.991 48.845 110.029C48.845 110.067 48.8597 110.103 48.886 110.13C48.9122 110.157 48.948 110.173 48.9858 110.175Z" fill="black"/>
<path d="M51.6881 77.1738C52.4824 77.1738 53.2579 77.2068 53.9569 76.7548C54.3159 76.5188 54.614 76.2028 54.827 75.8308C55.041 75.4588 55.164 75.0418 55.187 74.6138C55.28 73.3648 55.3709 72.1152 55.4599 70.8656L55.5579 69.5084C55.5579 69.4313 55.5269 69.3575 55.4719 69.303C55.4179 69.2485 55.3439 69.2175 55.2669 69.2167H49.7868C49.7098 69.2178 49.6363 69.2489 49.5818 69.3033C49.5273 69.3578 49.4962 69.4314 49.4951 69.5084V74.1878C49.4814 74.5168 49.486 74.8448 49.5089 75.1728C49.5699 75.7128 49.824 76.2128 50.2244 76.5808C50.6249 76.9488 51.1446 77.1588 51.6881 77.1738C52.0636 77.1818 52.0636 76.5978 51.6882 76.5908C51.2764 76.5778 50.8838 76.4128 50.5869 76.1278C50.2899 75.8418 50.1096 75.4568 50.0811 75.0458C50.0664 74.7608 50.0784 74.4728 50.0784 74.1878V69.5084L49.7868 69.8001H55.2669L54.9749 69.5084L54.746 72.6626L54.618 74.4108C54.575 75.0058 54.4269 75.5538 53.9859 75.9898C53.5949 76.3728 53.07 76.5888 52.5221 76.5908C52.2441 76.5928 51.9662 76.5908 51.6882 76.5908C51.3129 76.5908 51.3122 77.1738 51.6881 77.1738Z" fill="black"/>
<path d="M49.2356 39.6412L49.3739 32.7932L55.1829 35.0298L55.3639 39.5254" fill="#FC7F3A"/>
<path d="M49.5274 39.6408L49.5741 37.3296L49.6485 33.6429L49.6657 32.7929L49.2964 33.0741L54.396 35.0375L55.105 35.3106L54.891 35.0294L55.05 38.9691L55.072 39.525C55.087 39.8991 55.671 39.9011 55.656 39.525L55.497 35.5854L55.474 35.0294C55.472 34.9661 55.451 34.905 55.412 34.8546C55.374 34.8041 55.321 34.767 55.26 34.7482L50.161 32.7848L49.4517 32.5117C49.4084 32.5003 49.3631 32.4988 49.3191 32.5076C49.2752 32.5163 49.2339 32.5349 49.1983 32.562C49.1627 32.5892 49.1337 32.6241 49.1136 32.6641C49.0936 32.7041 49.0829 32.7482 49.0825 32.793L49.0358 35.1042L48.9614 38.7908L48.9442 39.6408C48.9366 40.0163 49.5198 40.0163 49.5274 39.6408Z" fill="black"/>
<path d="M54.2169 35.9413C54.7299 36.051 55.2489 36.1246 55.7719 36.1617C55.9329 36.1736 56.0939 36.1591 56.2499 36.1187C58.4709 35.5431 59.3599 33.4612 59.6479 31.2507H59.8599C60.5589 31.3492 60.8239 31.1782 60.7429 30.7392C60.1099 30.0475 59.8439 29.6618 59.7739 29.1622L59.7569 28.8386C59.7199 27.5434 59.5719 26.2538 59.3119 24.9843L48.1621 24.5852C48.1621 24.5852 46.7138 26.9715 46.8203 28.0705C47.0036 29.963 48.8476 31.3183 49.357 33.7583" fill="#FC7F3A"/>
<path d="M54.1399 36.2222C54.4939 36.2977 54.8509 36.3553 55.2099 36.3986C55.5789 36.4673 55.9581 36.4677 56.3281 36.3996C56.8591 36.2668 57.3589 36.0287 57.7959 35.6994C58.6559 35.0507 59.2041 34.1069 59.5391 33.0973C59.7301 32.4956 59.8641 31.8772 59.9391 31.2503L59.6481 31.542C60.0891 31.542 60.7209 31.6916 60.9749 31.2038C61.0289 31.0936 61.0541 30.9714 61.0481 30.8487C61.0421 30.6228 60.9281 30.5107 60.7841 30.349C60.5631 30.1161 60.3709 29.8575 60.2109 29.5788C60.1629 29.4887 60.1259 29.3936 60.0989 29.2953C60.0829 29.2389 60.0701 29.1815 60.0621 29.1235C60.0731 29.2038 60.0619 29.09 60.0609 29.0675C60.0449 28.7654 60.0381 28.463 60.0201 28.1609C59.9761 27.4273 59.8951 26.6959 59.7851 25.9695C59.7301 25.6139 59.6721 25.2576 59.5941 24.9064C59.5761 24.8453 59.5389 24.7914 59.4889 24.7529C59.4379 24.7143 59.3761 24.6931 59.3131 24.6924L55.5439 24.5575L49.5382 24.3425L48.1623 24.2932C48.1113 24.2933 48.0614 24.3066 48.0172 24.332C47.9731 24.3573 47.9362 24.3938 47.9104 24.4377C47.7185 24.7544 47.5426 25.0817 47.3749 25.4118C47.0488 26.0127 46.7928 26.6491 46.6122 27.3085C46.2642 28.7429 47.2187 30.0417 47.928 31.2006C48.4341 32.0277 48.8718 32.8806 49.0761 33.8356C49.1546 34.2025 49.717 34.0472 49.6386 33.6805C49.4431 32.8427 49.1163 32.0411 48.6705 31.3054C48.2946 30.6578 47.8612 30.0417 47.5255 29.3712C47.2657 28.852 47.0314 28.2127 47.1345 27.6506C47.2725 27.03 47.4951 26.4313 47.796 25.8713C47.9869 25.4843 48.1904 25.1013 48.4141 24.7321L48.1623 24.8766L51.9312 25.0115L57.9371 25.2264L59.3131 25.2757L59.0309 25.0616C59.1569 25.6283 59.2431 26.2068 59.3121 26.7828C59.3841 27.3813 59.434 27.9827 59.457 28.5852C59.445 28.9213 59.4861 29.2573 59.5781 29.5809C59.7721 30.1084 60.1651 30.5365 60.5371 30.9451L60.4619 30.8164C60.4749 30.8948 60.465 30.9352 60.444 30.9563C60.492 30.9079 60.4401 30.9507 60.4261 30.9563C60.3931 30.9663 60.3591 30.9744 60.3261 30.9804C60.0991 30.989 59.8731 30.9818 59.6481 30.9588C59.5711 30.961 59.498 30.9925 59.444 31.0467C59.39 31.1009 59.3581 31.1738 59.3561 31.2504C59.1131 33.0903 58.354 35.133 56.429 35.7623C56.284 35.8158 56.1331 35.8521 55.9791 35.8706C55.7911 35.8769 55.6039 35.8662 55.4179 35.8386C55.0409 35.7992 54.6659 35.7395 54.2949 35.6598C53.9289 35.5816 53.7719 36.1437 54.1399 36.2222Z" fill="black"/>
<path d="M54.6719 29.8962C54.5989 29.6588 54.5119 29.4262 54.4099 29.1998C54.2579 28.849 54.0629 28.4672 53.7589 28.2237C53.6639 28.1394 53.5509 28.0785 53.4289 28.0461C53.3069 28.0136 53.1789 28.0105 53.0549 28.0369C52.9809 28.0581 52.9179 28.1076 52.8799 28.1747C52.8419 28.2418 52.8309 28.3211 52.8509 28.3957C52.8729 28.4694 52.9229 28.5317 52.9899 28.5697C53.0569 28.6077 53.1359 28.6183 53.2099 28.5994C53.2179 28.5981 53.2259 28.5963 53.2339 28.594C53.2689 28.5798 53.1979 28.6004 53.1919 28.5991C53.2079 28.5998 53.2239 28.5992 53.2399 28.5971C53.2469 28.5972 53.2559 28.5986 53.2629 28.5981C53.3019 28.5962 53.2219 28.5926 53.2199 28.5918C53.2389 28.5973 53.2579 28.6017 53.2779 28.605C53.2849 28.6071 53.2929 28.6106 53.2999 28.6124C53.3379 28.6212 53.2659 28.5975 53.2639 28.5963C53.2789 28.6044 53.2929 28.6117 53.3089 28.6179C53.3229 28.626 53.3379 28.6347 53.3519 28.6438C53.3799 28.662 53.4169 28.7089 53.3569 28.6444C53.4099 28.7019 53.4719 28.7497 53.5229 28.8108C53.5309 28.8205 53.5389 28.8304 53.5469 28.8401C53.5659 28.8622 53.5479 28.8621 53.5299 28.8176C53.5409 28.8357 53.5529 28.8527 53.5669 28.8682C53.5929 28.9052 53.6179 28.9431 53.6419 28.9817C53.7379 29.1368 53.8219 29.2985 53.8939 29.4655C53.9029 29.4845 53.9109 29.5036 53.9189 29.5226C53.8919 29.4572 53.9349 29.5593 53.9189 29.5226C53.9359 29.5625 53.9519 29.6024 53.9669 29.6426C53.9929 29.7078 54.0169 29.7735 54.0399 29.8396C54.0639 29.9097 54.0879 29.98 54.1089 30.0512C54.1189 30.0883 54.1369 30.123 54.1599 30.1534C54.1839 30.1837 54.2129 30.2092 54.2459 30.2282C54.2799 30.2472 54.3159 30.2595 54.3549 30.2642C54.3929 30.269 54.4309 30.2662 54.4679 30.256C54.5049 30.2458 54.5399 30.2284 54.5699 30.2047C54.6009 30.1811 54.6259 30.1517 54.6449 30.1183C54.6639 30.0849 54.6759 30.048 54.6799 30.0099C54.6849 29.9718 54.6819 29.9331 54.6719 29.8962Z" fill="black"/>
<path d="M58.9599 27.4296C58.7329 27.2838 58.4799 27.1821 58.2159 27.1299C57.6289 27.0042 57.0159 27.0988 56.4939 27.3957C56.4279 27.4349 56.3799 27.4988 56.3599 27.5735C56.3409 27.6482 56.3519 27.7275 56.3909 27.7942C56.4299 27.8608 56.4929 27.9093 56.5679 27.929C56.6429 27.9487 56.7219 27.938 56.7889 27.8993C56.9109 27.8301 57.0389 27.7741 57.1729 27.7324C57.2809 27.6992 57.3919 27.6759 57.5049 27.6627C57.7079 27.6403 57.9129 27.6543 58.1109 27.704C58.1959 27.7243 58.2789 27.7496 58.3599 27.7796C58.3799 27.7868 58.3989 27.7951 58.4179 27.8021C58.4699 27.8204 58.3799 27.7836 58.4109 27.7989C58.4389 27.8128 58.4689 27.8247 58.4969 27.8386C58.5549 27.8661 58.6119 27.8977 58.6649 27.9333C58.7319 27.9723 58.8119 27.9832 58.8869 27.9636C58.9609 27.944 59.0249 27.8954 59.0639 27.8286C59.1029 27.7618 59.1139 27.6823 59.0949 27.6074C59.0749 27.5326 59.0269 27.4686 58.9599 27.4296Z" fill="black"/>
<path d="M58.053 29.377C58.269 29.377 58.444 29.2022 58.444 28.9865C58.444 28.7709 58.269 28.5961 58.053 28.5961C57.838 28.5961 57.663 28.7709 57.663 28.9865C57.663 29.2022 57.838 29.377 58.053 29.377Z" fill="black"/>
<path d="M57.5179 28.9801C57.5179 29.0906 57.5509 29.1985 57.6139 29.2894C57.6769 29.3803 57.7659 29.45 57.8689 29.4891C57.9709 29.5264 58.0809 29.532 58.1859 29.5054C58.2909 29.4788 58.3849 29.421 58.4559 29.3398C58.5129 29.2749 58.5539 29.1973 58.5739 29.1133C58.5949 29.0294 58.5939 28.9417 58.5739 28.8578C58.5529 28.774 58.5119 28.6964 58.4549 28.6316C58.3979 28.5669 58.3259 28.5169 58.2449 28.486C58.1649 28.4551 58.078 28.4441 57.992 28.4541C57.906 28.464 57.8239 28.4945 57.7519 28.5431C57.6809 28.5916 57.6219 28.6567 57.5809 28.7328C57.5399 28.8089 57.5189 28.8937 57.5179 28.9801C57.5179 29.0187 57.5329 29.0556 57.5609 29.0828C57.5879 29.1101 57.6249 29.1257 57.6629 29.126C57.7019 29.1253 57.7389 29.1097 57.7659 29.0825C57.7929 29.0553 57.8089 29.0185 57.8089 28.9801C57.8079 28.9692 57.8089 28.9582 57.8109 28.9476C57.8029 28.96 57.8059 28.9717 57.8099 28.9546C57.8139 28.9375 57.8179 28.9204 57.8229 28.9037L57.827 28.8938C57.832 28.8788 57.8309 28.8808 57.8229 28.8999C57.8259 28.8933 57.8289 28.8871 57.8319 28.8813C57.8399 28.8621 57.8509 28.8445 57.8649 28.8293C57.8419 28.8442 57.8539 28.841 57.8639 28.831C57.8699 28.825 57.876 28.8185 57.882 28.8125C57.886 28.8078 57.891 28.8031 57.896 28.7986L57.9039 28.792C57.9159 28.782 57.9139 28.7832 57.8979 28.7958C57.9039 28.7854 57.9319 28.7736 57.9419 28.7687C57.9479 28.7654 57.9539 28.7626 57.9599 28.7594C57.9849 28.7461 57.9319 28.7664 57.9679 28.7567C57.9849 28.7521 58.0009 28.7468 58.0189 28.7435L58.0239 28.7425C58.0399 28.7399 58.0379 28.7401 58.0169 28.7433C58.0209 28.7399 58.0379 28.7419 58.0439 28.7418C58.0529 28.7415 58.0619 28.7417 58.0709 28.7421C58.0729 28.7422 58.1089 28.7432 58.0839 28.7422C58.0599 28.7413 58.0929 28.7442 58.0959 28.7449C58.1059 28.747 58.1159 28.7495 58.1259 28.7525C58.1369 28.7541 58.1469 28.7575 58.1559 28.7626C58.1549 28.7614 58.1249 28.7471 58.1489 28.7603C58.1649 28.7683 58.1799 28.7761 58.1939 28.7855C58.1959 28.7868 58.2229 28.8066 58.2039 28.7918C58.1849 28.7771 58.2109 28.7984 58.2129 28.7999C58.2289 28.8121 58.2429 28.8271 58.2549 28.8442C58.2459 28.8215 58.2439 28.829 58.2499 28.8392C58.2549 28.8479 58.2609 28.8563 58.2659 28.8652C58.2699 28.8711 58.2729 28.877 58.2759 28.8831L58.2809 28.8923C58.2869 28.9068 58.2859 28.9047 58.2779 28.8858C58.2869 28.893 58.2909 28.9249 58.2929 28.9356C58.2949 28.9425 58.296 28.9493 58.298 28.9562C58.304 28.9856 58.296 28.926 58.298 28.9651C58.299 28.9814 58.2979 28.9977 58.2969 29.014C58.2969 29.0501 58.3049 28.9828 58.2969 29.0178C58.2959 29.0247 58.2949 29.0316 58.2929 29.0385C58.2899 29.0504 58.2869 29.0797 58.2769 29.0882L58.284 29.0725C58.281 29.0787 58.2779 29.0849 58.2749 29.091C58.2709 29.1001 58.2659 29.109 58.2599 29.1178C58.2559 29.1248 58.2499 29.1316 58.2459 29.139C58.2369 29.1567 58.2689 29.1143 58.2469 29.1376C58.2349 29.1499 58.2239 29.1624 58.2109 29.1738C58.2089 29.1756 58.1829 29.1951 58.2029 29.1817C58.2219 29.1681 58.1939 29.1869 58.1919 29.1881C58.1759 29.201 58.1579 29.2111 58.1379 29.2174C58.1409 29.217 58.171 29.2064 58.145 29.2141C58.135 29.2171 58.1249 29.2205 58.1149 29.2231C58.1079 29.2249 58.1009 29.2265 58.0939 29.2279C58.0899 29.2288 58.0589 29.2301 58.0819 29.2304C58.1069 29.2307 58.0719 29.2303 58.0699 29.2304C58.0599 29.2308 58.0509 29.2308 58.0419 29.2305C58.0329 29.2316 58.0239 29.2312 58.0149 29.229C58.0359 29.2321 58.0389 29.2323 58.0219 29.2296L58.0119 29.2276C57.9979 29.2248 57.962 29.2208 57.952 29.2097L57.9679 29.2165C57.9629 29.2144 57.9579 29.2123 57.9539 29.2099C57.9429 29.2041 57.9319 29.1987 57.9219 29.1924C57.9159 29.1888 57.9109 29.1848 57.9049 29.1812C57.8919 29.1719 57.894 29.1734 57.91 29.1857C57.905 29.1814 57.9 29.177 57.895 29.1724C57.882 29.161 57.8709 29.1483 57.8599 29.136C57.8359 29.1112 57.8749 29.1623 57.8579 29.1332C57.8519 29.1244 57.846 29.1162 57.841 29.1073C57.836 29.0984 57.832 29.0892 57.827 29.0802C57.813 29.0544 57.835 29.1073 57.826 29.0768C57.82 29.0565 57.8149 29.037 57.8099 29.0163C57.8059 28.9977 57.8039 29.0142 57.8109 29.0234C57.8059 29.0161 57.8089 28.989 57.8089 28.9801C57.8089 28.9414 57.7939 28.9043 57.7669 28.877C57.7389 28.8496 57.7019 28.8342 57.6629 28.8342C57.6249 28.8342 57.5879 28.8496 57.5599 28.877C57.5329 28.9043 57.5179 28.9414 57.5179 28.9801Z" fill="black"/>
<path d="M52.3232 30.9958C52.6281 31.4692 53.0999 31.8103 53.6449 31.9513C53.9289 32.0173 54.2219 32.0282 54.5099 31.9834C54.5839 31.9627 54.6469 31.9133 54.6849 31.846C54.7239 31.7788 54.7339 31.6992 54.7129 31.6246C54.6909 31.5514 54.6409 31.4895 54.5739 31.4517C54.5069 31.4139 54.4289 31.4029 54.3539 31.4209C54.4139 31.4129 54.3039 31.4248 54.2929 31.4255C54.2569 31.4281 54.2219 31.4297 54.1859 31.4303C54.1179 31.4315 54.0489 31.4289 53.9819 31.4225C53.9649 31.4209 53.9489 31.4192 53.9329 31.4172C53.9699 31.4223 53.9719 31.4223 53.9379 31.4173C53.9069 31.4113 53.8759 31.4062 53.8459 31.3994C53.7939 31.388 53.7419 31.3742 53.6909 31.3581C53.6629 31.3492 53.6359 31.3396 53.6079 31.3294C53.5929 31.3238 53.5049 31.284 53.5779 31.3184C53.5279 31.2951 53.4789 31.2718 53.4309 31.2452C53.3849 31.22 53.3399 31.193 53.2969 31.1641C53.2759 31.1504 53.2549 31.1362 53.2349 31.1216C53.2279 31.1165 53.1649 31.0706 53.2059 31.1012C53.2469 31.1314 53.1879 31.0861 53.1809 31.0803C53.1639 31.0661 53.1459 31.0515 53.1299 31.0367C53.0979 31.0089 53.0669 30.9803 53.0369 30.9508C52.9889 30.9029 52.9429 30.8528 52.8989 30.8005C52.8779 30.7757 52.8279 30.6947 52.8909 30.7926C52.8799 30.7758 52.8669 30.7604 52.8549 30.7441C52.8459 30.7301 52.8359 30.716 52.8269 30.7015C52.8079 30.6684 52.7819 30.6395 52.7509 30.6163C52.7209 30.5932 52.6859 30.5762 52.6489 30.5665C52.6118 30.5568 52.5732 30.5545 52.5353 30.5597C52.4973 30.5649 52.4608 30.5775 52.4277 30.5968C52.3946 30.6162 52.3657 30.6418 52.3425 30.6724C52.3194 30.7029 52.3025 30.7376 52.2927 30.7747C52.283 30.8118 52.2807 30.8504 52.2859 30.8883C52.2911 30.9263 52.3038 30.9627 52.3232 30.9958Z" fill="black"/>
<path d="M49.1793 39.7435L55.3519 38.9363L63.889 47.5705C63.889 47.5705 60.636 56.6607 60.173 61.6431L44.5193 61.4059C43.0428 54.9005 41.3424 49.8289 42.1405 45.2033" fill="white"/>
<path d="M49.1794 40.0353L54.5979 39.3266L55.3519 39.228L55.1459 39.1426L58.0409 42.0708L62.6249 46.7074L63.6829 47.7768L63.6079 47.493C63.2049 48.6182 62.8329 49.7547 62.4709 50.8933C61.7409 53.1898 61.0619 55.5082 60.5299 57.8593C60.2329 59.1054 60.0159 60.3693 59.8819 61.6433L60.1729 61.3516L58.6139 61.328L54.8689 61.2711L50.3594 61.2028L46.4451 61.1434L45.1597 61.124C44.9552 61.1099 44.7501 61.1068 44.5453 61.1147C44.5366 61.115 44.5279 61.1149 44.5193 61.1143L44.8005 61.3283C44.2704 58.996 43.6627 56.6821 43.1403 54.3481C42.6999 52.3811 42.3145 50.3861 42.2405 48.3669C42.195 47.3347 42.2558 46.3006 42.4218 45.2808C42.4844 44.9136 41.9223 44.7559 41.8593 45.1257C41.5329 47.0399 41.6239 48.979 41.8953 50.8939C42.2039 53.0703 42.7297 55.2109 43.2495 57.3444C43.5853 58.7226 43.9236 60.1002 44.2381 61.4834C44.2557 61.5446 44.2925 61.5985 44.3432 61.6371C44.3939 61.6756 44.4556 61.6968 44.5193 61.6975L46.079 61.7211L49.8234 61.7779L54.3329 61.8462L58.2469 61.9055C58.8779 61.9151 59.5159 61.9536 60.1469 61.9343C60.1559 61.9341 60.1649 61.9346 60.1729 61.9347C60.2499 61.9329 60.3229 61.9016 60.3779 61.8473C60.4319 61.793 60.4629 61.7198 60.4649 61.643C60.6849 59.3112 61.2949 57.0068 61.9229 54.7569C62.4799 52.7609 63.0999 50.7822 63.7649 48.8197C63.8979 48.4283 64.0309 48.0371 64.1699 47.648C64.1839 47.5983 64.1849 47.5458 64.1719 47.4959C64.1579 47.446 64.1319 47.4005 64.0949 47.3642L62.2799 45.528L58.6539 41.8607L55.8449 39.0204C55.6839 38.8571 55.5319 38.63 55.2809 38.654C54.7199 38.7075 54.1609 38.8004 53.6029 38.8734L49.2694 39.4402L49.1795 39.4519C49.1029 39.4543 49.0301 39.4858 48.9759 39.54C48.9217 39.5942 48.8902 39.667 48.8878 39.7436C48.8882 39.8208 48.9191 39.8948 48.9737 39.9494C49.0283 40.004 49.1021 40.0348 49.1794 40.0353Z" fill="black"/>
<path d="M57.3129 39.5744H47.4952C47.5903 38.9378 47.9108 38.3564 48.3985 37.9362C48.8861 37.516 49.5084 37.2849 50.1521 37.2849H52.1347C52.555 37.2849 52.9699 37.3835 53.3449 37.5728L57.3129 39.5744Z" fill="white"/>
<path d="M57.3129 39.2823H47.4953L47.7765 39.6515C47.8545 39.1096 48.1137 38.61 48.512 38.2342C48.9103 37.8585 49.4241 37.6287 49.9697 37.5824C50.6157 37.5389 51.2742 37.5761 51.9214 37.5761C52.3604 37.5575 52.7979 37.6426 53.1979 37.8244C53.3289 37.889 53.4589 37.956 53.5889 38.0218L55.6079 39.0404L57.1659 39.8258C57.4999 39.9945 57.7959 39.4915 57.4599 39.3222L53.9479 37.5505C53.7969 37.4743 53.6459 37.3966 53.4939 37.3217C53.0339 37.0982 52.5285 36.9856 52.0172 36.9928C51.3619 36.9928 50.7024 36.9696 50.0476 36.9948C49.36 37.0237 48.7033 37.288 48.1874 37.7434C47.6716 38.1989 47.3279 38.8178 47.214 39.4965C47.2031 39.5397 47.2021 39.5849 47.211 39.6286C47.22 39.6723 47.2386 39.7134 47.2657 39.7489C47.2927 39.7843 47.3274 39.8133 47.3671 39.8335C47.4069 39.8537 47.4507 39.8647 47.4953 39.8657H57.3129C57.6879 39.8657 57.6889 39.2823 57.3129 39.2823Z" fill="black"/>
<path d="M57.9089 32.3522C58.1119 32.6917 58.4379 32.9406 58.8189 33.0482C59.0119 33.0944 59.2119 33.0975 59.4059 33.0571C59.4799 33.0362 59.5439 32.9868 59.5819 32.9196C59.6199 32.8524 59.6299 32.7729 59.6099 32.6984C59.5869 32.6249 59.5379 32.5627 59.4709 32.5248C59.4039 32.4869 59.3249 32.4761 59.2509 32.4947C59.2239 32.4999 59.1549 32.4973 59.2459 32.4973C59.2249 32.4973 59.2039 32.5017 59.1819 32.5028C59.1419 32.505 59.1009 32.5046 59.0599 32.5017C59.0329 32.4997 58.9689 32.4823 59.0649 32.504C59.0459 32.4998 59.0269 32.4977 59.0079 32.4937C58.9719 32.486 58.9359 32.4763 58.9009 32.4645C58.8839 32.4588 58.8669 32.4523 58.8499 32.446C58.8039 32.4287 58.9249 32.4801 58.8589 32.4491C58.8279 32.4345 58.7979 32.4185 58.7679 32.4011C58.7399 32.3844 58.7119 32.3665 58.6849 32.3475C58.6719 32.3383 58.6589 32.3285 58.6459 32.3192C58.7289 32.3786 58.6779 32.344 58.6599 32.3286C58.5809 32.2617 58.5089 32.1876 58.4439 32.1073C58.4179 32.076 58.4979 32.1798 58.4679 32.1385C58.4629 32.1319 58.4579 32.1254 58.4529 32.1187C58.4459 32.108 58.4379 32.0972 58.4309 32.0863C58.4239 32.0769 58.4179 32.0675 58.4119 32.0578C58.3729 31.9913 58.3089 31.9431 58.2349 31.9237C58.1599 31.9042 58.0799 31.9152 58.0139 31.9541C57.9469 31.9931 57.8989 32.0568 57.8789 32.1315C57.8589 32.2061 57.8699 32.2855 57.9089 32.3522Z" fill="black"/>
<path d="M96.4296 23.1081C96.4296 23.1081 95.9838 22.3336 93.3763 22.5145C91.8785 23.0021 93.966 26.6997 93.966 26.6997L95.7777 25.9723" fill="#FC7272"/>
<path d="M96.6803 22.9584C96.5341 22.7096 96.2218 22.5661 95.9679 22.4659C95.6469 22.3487 95.3132 22.2733 94.9729 22.2416C94.7297 22.2136 94.4845 22.1984 94.2385 22.196C93.9374 22.1796 93.6344 22.1903 93.3348 22.2282C92.6837 22.3409 92.5063 23.0935 92.5522 23.6483C92.6352 24.3298 92.825 24.9937 93.1174 25.615C93.2942 26.0368 93.4938 26.4486 93.7153 26.8488C93.7488 26.9038 93.7992 26.9465 93.8594 26.9702C93.9186 26.9938 93.9846 26.9973 94.0465 26.9799L95.8581 26.2525C95.9319 26.2293 95.9925 26.1791 96.0299 26.1121C96.0673 26.0451 96.0776 25.9663 96.059 25.8919C96.0373 25.8178 95.9868 25.7553 95.9195 25.7177C95.8521 25.6802 95.773 25.6708 95.6982 25.6915L93.8865 26.4189L94.2167 26.5501C93.7477 25.7592 93.4022 24.9014 93.1923 24.0064C93.1362 23.765 93.116 23.5165 93.1339 23.2694C93.1349 23.2668 93.153 23.1665 93.1646 23.1254C93.1714 23.1009 93.1792 23.0769 93.187 23.0529C93.1889 23.0483 93.2046 23.0101 93.1909 23.0419C93.1752 23.0775 93.2066 23.0105 93.2066 23.0105C93.2194 22.9901 93.2313 22.9692 93.2431 22.9487C93.2707 22.9024 93.2183 22.9725 93.2549 22.9325C93.2708 22.915 93.2866 22.8981 93.3035 22.8813C93.3144 22.8702 93.3263 22.8597 93.3392 22.8499C93.3184 22.8666 93.3144 22.8679 93.3392 22.8531C93.3601 22.8401 93.382 22.8273 93.4039 22.8153C93.4457 22.7925 93.3809 22.8124 93.4308 22.8037C93.5697 22.7865 93.7106 22.7794 93.8506 22.7826C94.0996 22.7755 94.3486 22.7771 94.5967 22.7915C94.9389 22.8065 95.2784 22.8621 95.6082 22.9569C95.6744 22.9772 95.7406 22.9999 95.8058 23.025C95.853 23.0434 95.7777 23.0107 95.837 23.0386C95.8631 23.051 95.8902 23.0631 95.9163 23.0764C95.9555 23.0965 95.9947 23.118 96.0329 23.1413C96.062 23.1597 96.1557 23.2324 96.0811 23.1699C96.1184 23.2014 96.1528 23.243 96.192 23.272C96.2323 23.3024 96.1454 23.2 96.1789 23.2572C96.3697 23.5809 96.8711 23.283 96.6803 22.9584Z" fill="black"/>
<path d="M84.321 34.5025L85.0021 33.2462C85.4626 32.3942 85.8267 31.4933 86.0875 30.5603C86.2892 29.8398 86.4453 29.4998 86.6271 28.3448C87.152 25.0195 90.6209 23.9613 91.2552 24.1138C91.8886 24.2664 92.5897 25.5279 92.4578 26.0007C91.8838 28.05 91.4263 30.2773 91.4263 30.2773L91.3339 35.3711L89.7965 38.9757" fill="#FC7F3A"/>
<path d="M84.5743 34.6478C84.9079 34.032 85.2596 33.4222 85.561 32.7894C85.886 32.106 86.1528 31.3964 86.3604 30.6682C86.4895 30.2126 86.6395 29.7629 86.7445 29.3006C86.8792 28.7033 86.9329 28.0909 87.1408 27.5118C87.3068 27.0557 87.5471 26.6304 87.8528 26.2532C88.3871 25.604 89.0656 25.0874 89.8336 24.7442C89.9601 24.6863 90.1186 24.6236 90.2791 24.569C90.4197 24.5207 90.5623 24.4796 90.707 24.4459C90.7659 24.4326 90.8248 24.4221 90.8827 24.4106C90.9656 24.3942 90.8578 24.412 90.9057 24.4066C90.9357 24.4031 90.9666 24.3992 90.9966 24.3968C91.0396 24.3935 91.0816 24.3924 91.1246 24.3918C91.1426 24.3917 91.1606 24.3948 91.1786 24.3943C91.1976 24.3936 91.1084 24.3724 91.1696 24.3939C91.5628 24.5303 91.8426 24.9554 92.0259 25.3302C92.1174 25.5007 92.171 25.6892 92.1817 25.8825C92.1813 25.9469 92.1917 25.88 92.1664 25.9593C92.1381 26.0462 92.1169 26.1365 92.0937 26.2246C92.0423 26.4126 91.992 26.6008 91.9426 26.7894C91.6572 27.8851 91.3989 28.9875 91.1656 30.0967C91.1177 30.4445 91.1017 30.7961 91.1188 31.1469L91.044 35.2758L91.0429 35.3741L91.0816 35.2266L89.7342 38.384L89.5431 38.8311C89.5067 38.8988 89.4984 38.9776 89.5181 39.0516C89.5387 39.1255 89.5863 39.1891 89.6516 39.2292C89.719 39.2671 89.7981 39.277 89.8729 39.2568C89.9467 39.2365 90.0103 39.1878 90.0497 39.121L90.9052 37.1151L91.4353 35.8743C91.5288 35.7063 91.5932 35.5237 91.6266 35.3341C91.6601 34.5971 91.6526 33.856 91.6661 33.1183L91.7132 30.4982C91.7245 30.4274 91.7259 30.3554 91.7173 30.2842C91.7101 30.2626 91.6933 30.402 91.7146 30.3209C91.731 30.2549 91.7424 30.1866 91.7568 30.12C91.8923 29.4841 92.0357 28.8499 92.1882 28.2176C92.2981 27.7573 92.4131 27.2981 92.5321 26.8401C92.625 26.4896 92.8007 26.1021 92.7544 25.7339C92.6498 25.0922 92.3157 24.5101 91.815 24.0949C91.6689 23.9725 91.4952 23.8863 91.3088 23.843C91.1234 23.7998 90.9294 23.8008 90.7438 23.846C90.3514 23.9192 89.9705 24.0414 89.6089 24.2098C88.5688 24.6608 87.6844 25.4072 87.0657 26.3565C86.7076 26.9242 86.4652 27.5573 86.354 28.2191C86.2359 28.8988 86.0778 29.5706 85.8786 30.231C85.6362 31.1052 85.3157 31.9559 84.9208 32.7725C84.7144 33.1811 84.4889 33.5807 84.2704 33.9831L84.0677 34.3578C83.8886 34.6881 84.3952 34.9783 84.5743 34.6478Z" fill="black"/>
<path d="M89.4561 26.3902L96.0246 22.8927C96.0246 22.8927 97.0101 23.1649 96.8083 24.2197C97.5152 24.7751 97.4501 25.3373 97.1035 25.8317C97.7397 26.3176 97.8875 27.0885 97.3292 27.5146C97.8955 28.0011 97.9723 28.7726 97.2759 29.4106C96.7024 29.9353 96.0342 30.4805 95.2558 30.7773C94.5192 31.0563 93.852 31.4934 93.3029 32.0578C92.7538 32.6222 92.3348 33.3003 92.0753 34.0443L91.572 35.4981L90.1937 38.6562" fill="#FC7F3A"/>
<path d="M95.7537 23.0121C95.8008 23.0297 95.6683 22.9713 95.7406 23.0068C95.7818 23.0273 95.824 23.046 95.8652 23.0677C95.9716 23.1228 96.0722 23.189 96.1649 23.2653C96.2978 23.3658 96.403 23.5006 96.4663 23.6552C96.5297 23.81 96.5512 23.979 96.5266 24.1447C96.5141 24.1945 96.5145 24.2469 96.528 24.2966C96.5414 24.3463 96.5678 24.3916 96.6041 24.4278C96.8076 24.5924 97.0304 24.7976 97.0618 25.0733C97.0677 25.2965 96.9927 25.5144 96.8512 25.6869C96.8187 25.7428 96.8062 25.8079 96.8148 25.8717C96.8233 25.9356 96.8539 25.9947 96.8993 26.0399C97.3061 26.3612 97.609 26.9184 97.1214 27.3103C97.0669 27.3657 97.0375 27.4401 97.0382 27.5174C97.0389 27.5946 97.0695 27.6684 97.125 27.7228C97.2267 27.8025 97.3116 27.9026 97.3736 28.0166C97.4356 28.1306 97.4727 28.2561 97.4839 28.3853C97.4791 28.5332 97.4444 28.6786 97.3816 28.8122C97.3178 28.9459 97.2268 29.0649 97.1146 29.1616C96.5973 29.6907 95.989 30.1232 95.3188 30.4387C95.003 30.5775 94.684 30.6967 94.3815 30.8661C94.0989 31.0266 93.8295 31.2106 93.5773 31.4161C93.0629 31.8322 92.6263 32.3355 92.2873 32.9028C91.8526 33.6285 91.621 34.468 91.3459 35.263C91.3263 35.3099 91.3098 35.3577 91.2962 35.4063C91.2827 35.4651 91.3394 35.3124 91.3119 35.3701C91.2765 35.4456 91.2452 35.5234 91.2119 35.5999L90.7834 36.5797L89.9404 38.5113C89.9049 38.579 89.8956 38.6578 89.9153 38.7319C89.9359 38.8059 89.9835 38.8694 90.0489 38.9095C90.1162 38.9473 90.1953 38.9572 90.2701 38.937C90.3449 38.9168 90.4085 38.8681 90.4469 38.8013L91.1881 37.1039C91.4145 36.5847 91.674 36.0692 91.8673 35.5362C92.1339 34.8013 92.3281 34.0208 92.7111 33.3348C93.036 32.7529 93.4715 32.2399 93.9929 31.825C94.2451 31.6259 94.5166 31.4506 94.8013 31.3015C95.1199 31.1329 95.4629 31.0215 95.7855 30.8601C96.1737 30.6577 96.5406 30.4153 96.8782 30.1367C97.223 29.8887 97.5304 29.5929 97.7925 29.2586C98.0019 28.9601 98.0917 28.5938 98.0435 28.2323C97.9954 27.8708 97.8135 27.5405 97.5334 27.3067L97.537 27.7191C98.2669 27.1332 97.9511 26.1309 97.3086 25.6237L97.3567 25.9768C97.5623 25.7031 97.6624 25.3652 97.6404 25.024C97.6076 24.8224 97.5349 24.6291 97.4274 24.4555C97.3199 24.2818 97.1795 24.1309 97.0135 24.0117L97.091 24.2948C97.1397 24.0409 97.1224 23.7787 97.0413 23.5334C96.9591 23.2881 96.8152 23.068 96.6237 22.8942C96.415 22.7003 96.1706 22.5487 95.9037 22.4482C95.8286 22.4289 95.7496 22.4398 95.683 22.4785C95.6163 22.5172 95.5669 22.5806 95.5465 22.655C95.5282 22.7297 95.5399 22.8085 95.5785 22.875C95.617 22.9416 95.6795 22.9907 95.7537 23.0121Z" fill="black"/>
<path d="M89.6063 26.6406L94.4369 24.0685L95.1287 23.7C95.4602 23.5235 95.1608 23.0225 94.8293 23.1989L89.9997 25.7711L89.3069 26.1396C88.9754 26.3161 89.2748 26.8171 89.6063 26.6406Z" fill="black"/>
<path d="M83.9384 34.7778L85.4082 32.4656L91.5478 35.9323L90.4809 38.1129" fill="white"/>
<path d="M84.1917 34.9225L85.6615 32.6103L85.2634 32.7185L87.3318 33.8864L90.6463 35.7582L91.4031 36.1852L91.2946 35.7871L90.2277 37.9677C90.0636 38.304 90.5692 38.5953 90.7342 38.2577L91.8011 36.0771C91.8376 36.0096 91.8469 35.9305 91.8272 35.8563C91.8066 35.7821 91.759 35.7185 91.6926 35.679L89.6243 34.511L86.3098 32.6394L85.553 32.2123C85.4857 32.1754 85.4066 32.1661 85.3328 32.1862C85.258 32.2064 85.1944 32.2544 85.1549 32.3204L83.6852 34.6326C83.4829 34.9502 83.9905 35.2385 84.1917 34.9225Z" fill="black"/>
<path d="M54.2214 39.8072L59.885 39.7424C60.961 39.73 62.0252 39.9751 62.9874 40.457L72.606 45.2721L77.1987 47.7282L79.5306 41.2004C80.5203 38.4296 82.2057 35.9599 84.4259 34.0288L84.7435 33.7526L90.95 37.4301L91.8402 41.2109C92.1289 42.4352 91.9362 43.7236 91.3017 44.8102L85.1667 55.3315C84.0667 57.0463 82.3797 58.3018 80.4215 58.8633C78.4634 59.4248 76.3668 59.2539 74.5261 58.3824L69.492 56.0001L57.5425 50.072" fill="white"/>
<path d="M54.2239 40.0991L59.2296 40.0418C59.4466 40.0393 59.6646 40.036 59.8826 40.0342C60.7955 40.0227 61.7011 40.2045 62.5394 40.5675C62.964 40.7546 63.375 40.9768 63.7898 41.1846L69.1717 43.8788C70.2755 44.4317 71.3923 44.9658 72.4853 45.5389C73.9672 46.3151 75.4363 47.1164 76.9103 47.905L77.0539 47.9816C77.0931 48.0029 77.1362 48.0151 77.1803 48.0175C77.2253 48.0198 77.2692 48.0122 77.3101 47.995C77.3509 47.978 77.3877 47.9518 77.4174 47.9187C77.4471 47.8856 77.4688 47.8462 77.4804 47.8035L79.0314 43.4621L79.7663 41.4032C80.2075 40.159 80.788 38.969 81.4973 37.8562C82.4566 36.3981 83.6201 35.0851 84.9513 33.9573L84.5987 34.006L86.6997 35.251L90.0331 37.2258L90.8052 37.6834L90.6696 37.5103L91.1537 39.5651L91.4612 40.8741C91.547 41.1952 91.6118 41.5217 91.6547 41.8512C91.7469 42.8937 91.501 43.9382 90.9528 44.83L90.14 46.2248L87.2671 51.1499L85.0366 54.9746C84.1012 56.5354 82.6657 57.7343 80.9622 58.3771C79.2598 59.0198 77.3902 59.0687 75.6563 58.5158C74.9972 58.2827 74.3547 58.0053 73.7339 57.6858C72.3682 57.0396 70.9956 56.406 69.6367 55.7469C68.7148 55.2997 67.7997 54.8358 66.8817 54.3803L61.5834 51.7516L57.8791 49.9141L57.6873 49.819C57.3518 49.6525 57.0613 50.1582 57.3977 50.3252L60.9945 52.1096L67.1756 55.1759C68.1047 55.6371 69.0318 56.104 69.9698 56.5479L72.9945 57.9797C73.7848 58.3535 74.5735 58.7711 75.4039 59.0467C77.0296 59.5712 78.772 59.6084 80.418 59.1537C82.0631 58.6989 83.54 57.7723 84.6648 56.4879C85.0953 55.9683 85.4764 55.4096 85.8032 54.8191L87.1638 52.4856L90.5894 46.6115L91.5087 45.036C92.2132 43.8435 92.4278 42.4243 92.108 41.0766C91.8825 40.1115 91.655 39.1468 91.4265 38.1823L91.2842 37.5753C91.2731 37.4482 91.229 37.3262 91.1551 37.2222C91.0001 37.1013 90.8311 36.9983 90.6534 36.9153L85.3305 33.7616L84.8882 33.4997C84.832 33.469 84.7679 33.4572 84.7039 33.466C84.64 33.4748 84.5813 33.5036 84.5356 33.5484C83.3415 34.565 82.2777 35.7253 81.3688 37.0027C80.478 38.2847 79.7622 39.6795 79.2401 41.1504C78.6798 42.7149 78.1205 44.2796 77.5632 45.8447L76.9171 47.6535L77.3435 47.4754L72.9939 45.1492C72.0374 44.6378 71.0563 44.1709 70.087 43.6855L64.5244 40.9006C64.0693 40.6727 63.6143 40.4449 63.1583 40.2171C62.0756 39.686 60.8803 39.424 59.6745 39.4533L54.3688 39.5141L54.2188 39.5158C53.8438 39.5201 53.848 40.1034 54.2239 40.0991Z" fill="black"/>
<path d="M73.5453 46.1054L75.5904 47.2453L78.8555 49.0647L79.6112 49.4858C79.9398 49.6688 80.2294 49.1625 79.9018 48.9796L77.8557 47.8397L74.5906 46.0202L73.8349 45.5991C73.5063 45.4162 73.2167 45.9225 73.5453 46.1054Z" fill="black"/>
<path d="M31.8702 25.0094L32.5817 29.1996H36.0732L37.7568 22.949V19.3318C35.0574 20.3614 31.7971 22.1567 31.8702 25.0094Z" fill="#FC7F3A"/>
<path d="M32.4699 26.808L32.8628 29.122C32.9253 29.4898 32.363 29.6463 32.3003 29.277L31.8227 26.4642L31.6129 25.2289C31.5454 24.7367 31.5912 24.2356 31.7469 23.7639C32.1913 22.2919 33.3909 21.1802 34.6373 20.356C35.614 19.7103 36.6686 19.2305 37.7531 18.8186V19.4247C36.6382 19.8488 35.5784 20.4077 34.5974 21.0896C33.4727 21.8941 32.3932 23.0194 32.1908 24.4448C32.1686 24.6117 32.1585 24.78 32.1606 24.9484C32.1607 24.9522 32.1608 24.9568 32.1608 24.9625C32.1607 24.9578 32.1607 24.9531 32.1606 24.9484C32.1597 24.9107 32.157 24.9597 32.1596 24.981C32.1757 25.1072 32.2024 25.2329 32.2237 25.3583L32.4699 26.808Z" fill="black"/>
<path d="M49.1794 39.7439L45.02 39.8682C43.3046 39.9201 40.7978 40.3064 39.5152 42.0702L38.0754 43.6793L38.1945 29.6742L32.186 29.668L30.233 33.5775C29.3411 35.363 28.9948 37.3717 29.2374 39.3528L31.6638 54.8451C32.035 56.6109 33.0022 58.1952 34.4032 59.3323C35.8041 60.4694 37.5536 61.09 39.3579 61.0901H46.7638" fill="white"/>
<path d="M49.3225 39.5966L45.3033 39.7167C44.3613 39.7297 43.4242 39.8546 42.5117 40.0888C41.8865 40.2526 41.2883 40.5059 40.7356 40.8409C40.4613 41.0111 40.2042 41.2073 39.9676 41.4268C39.8544 41.5323 39.7472 41.6442 39.6465 41.7618C39.5852 41.8335 39.5261 41.9076 39.4694 41.983C39.4662 41.9872 39.4124 42.0549 39.4514 42.0089C39.4488 42.012 39.4459 42.0148 39.4433 42.0179C38.9823 42.5638 38.4887 43.0848 38.0122 43.6173L38.5101 43.8236L38.522 42.4306L38.5505 39.0854L38.5849 35.0386L38.6146 31.5406C38.6194 30.977 38.6495 30.4071 38.629 29.8438C38.6287 29.8354 38.6292 29.8269 38.6292 29.8185C38.6282 29.7415 38.5971 29.6679 38.5426 29.6134C38.4882 29.559 38.4146 29.5279 38.3376 29.5268L33.0618 29.5214L32.3289 29.5206C32.2779 29.5204 32.2278 29.5336 32.1835 29.5589C32.1393 29.5843 32.1026 29.6209 32.0771 29.6651L30.3612 33.1001C29.9551 33.8711 29.6265 34.6804 29.3804 35.5163C29.0115 36.8384 28.9162 38.2218 29.1003 39.582C29.2026 40.2779 29.318 40.9721 29.4269 41.6669L30.129 46.15L30.9016 51.083L31.4386 54.5113C31.4675 54.6959 31.4914 54.8822 31.5255 55.066C31.7524 56.1943 32.2275 57.258 32.9165 58.18C33.6196 59.1338 34.5203 59.9247 35.557 60.4985C36.5938 61.0723 37.7422 61.4156 38.9238 61.505C39.3573 61.5366 39.7944 61.526 40.2289 61.526L44.7068 61.4763C45.0637 61.3318 44.9228 61.0718 44.5468 61.0718L39.6476 60.9426C37.7179 60.9662 35.8495 60.2649 34.4118 58.9774C33.171 57.8616 32.3417 56.3607 32.0575 54.7163L31.6157 51.896L30.8778 47.1841L30.1411 42.4802L29.6953 39.6337C29.414 37.6553 29.7424 35.6381 30.6368 33.8512C31.2239 32.6722 31.8125 31.494 32.4025 30.3165L32.5809 29.9595L32.329 30.1039L37.6048 30.1094L38.3377 30.1101L38.046 29.8185L38.0341 31.2115L38.0057 34.5567L37.9713 38.6035L37.9416 42.1015C37.9368 42.665 37.9066 43.2349 37.9272 43.7983C37.9275 43.8067 37.927 43.8152 37.9269 43.8236C37.9283 43.8806 37.9463 43.936 37.9785 43.9831C38.0108 44.0302 38.0561 44.0668 38.1088 44.0887C38.1615 44.1105 38.2194 44.1166 38.2756 44.1061C38.3317 44.0957 38.3835 44.0691 38.4248 44.0298L39.7668 42.5299C40.0358 42.1921 40.3356 41.88 40.6624 41.5978C41.1502 41.2323 41.6963 40.952 42.2776 40.7686C43.8855 40.2369 45.6074 40.2909 47.28 40.2409L49.3225 40.1798C49.697 40.1686 49.6986 39.5853 49.3225 39.5966Z" fill="black"/>
<path d="M35.3091 28.1723H38.1948V25.8779L40.0572 24.5755C40.211 24.468 40.3324 24.3206 40.4086 24.1491C40.4848 23.9777 40.5127 23.7887 40.4895 23.6026C40.4703 23.449 40.4167 23.3018 40.3329 23.1717C40.249 23.0417 40.1369 22.9321 40.005 22.8513C39.873 22.7705 39.7246 22.7203 39.5706 22.7047C39.4167 22.689 39.2611 22.7082 39.1156 22.7609L37.4147 23.3761C37.3123 23.4131 37.2033 23.4287 37.0946 23.4218C36.9859 23.4148 36.8798 23.3856 36.7829 23.3359C36.686 23.2861 36.6004 23.217 36.5314 23.1327C36.4624 23.0484 36.4116 22.9508 36.3819 22.846" fill="#FC7F3A"/>
<path d="M35.3088 28.4637H38.1945C38.2715 28.4626 38.3451 28.4316 38.3995 28.3771C38.454 28.3226 38.4851 28.2491 38.4861 28.1721V25.8777L38.3417 26.1295L39.4092 25.3831C39.7892 25.1173 40.2971 24.8539 40.5651 24.4646C41.1258 23.6503 40.5616 22.5256 39.6048 22.4163C39.1107 22.3598 38.5713 22.6482 38.1186 22.812C37.8705 22.9017 37.623 22.9934 37.3743 23.0812C37.0852 23.1832 36.7547 23.0929 36.663 22.7682C36.5611 22.4075 35.9981 22.5608 36.1005 22.9232C36.1419 23.064 36.2111 23.195 36.3039 23.3085C36.3968 23.422 36.5115 23.5157 36.6413 23.5842C36.771 23.6526 36.9131 23.6943 37.0593 23.7068C37.2054 23.7194 37.3526 23.7025 37.4921 23.6571C37.7375 23.576 37.9792 23.481 38.2222 23.393C38.5315 23.2812 38.8403 23.1675 39.1502 23.0574C39.5356 22.9204 39.9719 23.0327 40.1466 23.4345C40.2 23.5385 40.2203 23.6564 40.2048 23.7723C40.1969 23.9128 40.1492 24.0482 40.0672 24.1627C39.9992 24.25 39.9166 24.325 39.823 24.3842L38.9786 24.9747L38.1413 25.5602C38.0238 25.6423 37.9138 25.7165 37.9029 25.8781C37.8985 25.9447 37.9029 26.0131 37.9029 26.0797V28.1721L38.1946 27.8805H35.3088C34.9335 27.8805 34.9329 28.4637 35.3088 28.4637Z" fill="black"/>
<path d="M38.1944 28.1718H32.1859V29.6739H38.1944V28.1718Z" fill="white"/>
<path d="M38.1943 29.3825H32.1858L32.4775 29.674V28.1719L32.1858 28.4636H38.1943L37.9027 28.1719V29.674C37.9027 30.0494 38.486 30.05 38.486 29.674V28.1719C38.4849 28.0949 38.4538 28.0214 38.3993 27.9669C38.3449 27.9125 38.2713 27.8813 38.1943 27.8802H32.1858C32.1088 27.8813 32.0352 27.9125 31.9808 27.9669C31.9263 28.0214 31.8952 28.0949 31.8942 28.1719V29.674C31.8952 29.751 31.9263 29.8247 31.9808 29.8792C32.0352 29.9336 32.1088 29.9646 32.1858 29.9657H38.1943C38.5697 29.9657 38.5703 29.3825 38.1943 29.3825Z" fill="black"/>
<path d="M37.9516 43.602L37.0962 46.1754L35.7341 50.2734L35.423 51.2092C35.3043 51.5663 35.8675 51.7194 35.9855 51.3643L36.8409 48.7909L38.203 44.6929L38.5141 43.7571C38.6327 43.4001 38.0696 43.247 37.9516 43.602Z" fill="black"/>
<path d="M40.2647 44.0181H50.7791C53.8349 39.2273 53.0199 31.3442 53.0199 31.3442C52.4787 30.9464 51.6727 29.3893 51.6459 28.4831C51.6056 27.114 52.331 26.7702 53.2869 26.742C54.2439 26.7138 55.3539 28.4891 55.3929 29.8234L55.4619 26.9302C55.4669 26.7191 55.5159 26.5113 55.6059 26.3203C55.6959 26.1293 55.8249 25.9592 55.9849 25.8209C56.1439 25.6827 56.3309 25.5794 56.5329 25.5176C56.7349 25.4558 56.9469 25.4369 57.1569 25.4621L59.2319 25.4978C59.4349 25.5012 59.6349 25.4524 59.8129 25.356C59.9919 25.2595 60.1429 25.1187 60.2509 24.9472C60.3589 24.7756 60.4219 24.579 60.4319 24.3763C60.4429 24.1737 60.3999 23.9718 60.3099 23.79L60.1389 23.4463C59.4829 22.1261 58.1559 20.5634 56.6819 20.5114L51.085 20.3138C49.4613 20.2565 46.4315 22.2126 45.7707 25.021L44.9355 29.3669C44.0702 29.7995 43.3426 30.4645 42.834 31.2874C42.3254 32.1103 42.056 33.0585 42.056 34.0259V34.1942L40.9857 34.6223C39.8582 35.0733 38.9237 35.904 38.3438 36.971C37.7638 38.0379 37.5748 39.2739 37.8095 40.4653C37.6594 40.8626 37.6078 41.2905 37.6594 41.712C37.7109 42.1336 37.864 42.5362 38.1054 42.8856C38.3469 43.235 38.6695 43.5206 39.0456 43.7178C39.4217 43.9151 39.84 44.0181 40.2647 44.0181Z" fill="#FFC41F"/>
<path d="M40.2645 44.3092H50.517C50.5896 44.3092 50.6627 44.3113 50.7353 44.3092C50.9425 44.3032 51.0341 44.1629 51.1363 43.9954C51.5573 43.2937 51.9084 42.5523 52.1846 41.7819C52.7229 40.2507 53.0739 38.6604 53.2329 37.0452C53.3759 35.7324 53.4329 34.4115 53.4029 33.0912C53.3909 32.5111 53.3769 31.9242 53.3119 31.3469C53.2919 31.1745 53.2009 31.1259 53.1079 31.0368C53.0029 30.934 52.9089 30.8212 52.8259 30.6999C52.5974 30.3704 52.4042 30.0179 52.2492 29.6482C51.9873 29.0298 51.7488 28.1999 52.0987 27.565C52.159 27.4578 52.24 27.3637 52.337 27.2881C52.434 27.2125 52.545 27.157 52.6636 27.1246C52.9259 27.0308 53.2089 27.0088 53.4829 27.0608C53.7809 27.1503 54.0269 27.4011 54.2239 27.6359C54.4769 27.9463 54.6819 28.2936 54.8299 28.6658C54.9869 29.0328 55.0789 29.4244 55.1009 29.8229C55.1039 29.8985 55.1359 29.9701 55.1899 30.0226C55.2449 30.0752 55.3169 30.1045 55.3929 30.1045C55.4689 30.1045 55.5409 30.0752 55.5959 30.0226C55.6499 29.9701 55.6819 29.8985 55.6849 29.8229L55.7479 27.1544C55.7449 27.0195 55.7529 26.8846 55.7709 26.751C55.8049 26.5672 55.8799 26.3935 55.9909 26.2428C56.1019 26.0922 56.2449 25.9685 56.4099 25.8809C56.8159 25.6624 57.3809 25.757 57.8309 25.7648C58.2929 25.7727 58.7559 25.7876 59.2179 25.7886C59.5959 25.7927 59.9609 25.6534 60.2399 25.3986C60.5199 25.1439 60.6919 24.7927 60.7219 24.416C60.7499 24.0568 60.6159 23.7508 60.4599 23.4383C60.3039 23.118 60.1279 22.8079 59.9329 22.5099C59.4339 21.7612 58.7989 21.0515 58.0049 20.6101C57.5489 20.3601 57.0409 20.224 56.5219 20.2135L55.3819 20.1732L52.0227 20.0546C51.7228 20.0441 51.4229 20.0323 51.123 20.0229C50.6703 20.0178 50.2209 20.0996 49.799 20.264C48.3444 20.8231 47.1064 21.8324 46.2658 23.1446C45.895 23.7044 45.6293 24.327 45.4818 24.982C45.4092 25.3364 45.3452 25.6928 45.277 26.048L44.6951 29.0753L44.6541 29.2887L44.7882 29.1144C43.8313 29.5972 43.0362 30.3487 42.5001 31.2768C42.0008 32.1667 41.7468 33.1733 41.7642 34.1936L41.9783 33.9123C41.1664 34.2371 40.3322 34.5218 39.6268 35.0539C38.5732 35.8455 37.8363 36.9868 37.5484 38.2729C37.3879 39.0201 37.381 39.7922 37.5281 40.5423V40.3872C37.3676 40.8221 37.3134 41.289 37.37 41.7491C37.4266 42.2092 37.5923 42.6491 37.8534 43.0321C38.1228 43.4234 38.4826 43.7439 38.9024 43.9662C39.3222 44.1885 39.7894 44.3062 40.2645 44.3092C40.6399 44.3128 40.6402 43.7294 40.2645 43.7259C39.8435 43.7239 39.4309 43.6089 39.0695 43.3931C38.7081 43.1773 38.4113 42.8684 38.2099 42.4987C38.0606 42.2244 37.9685 41.9227 37.9392 41.6117C37.9099 41.3007 37.9441 40.9871 38.0396 40.6897C38.0868 40.5772 38.1009 40.4536 38.0802 40.3334C38.0599 40.2161 38.0408 40.0993 38.0289 39.9808C37.9354 39.05 38.1068 38.1117 38.5232 37.274C38.9396 36.4363 39.5841 35.7332 40.3825 35.2457C40.9289 34.9176 41.5436 34.7107 42.1333 34.4748C42.1939 34.4561 42.2471 34.4189 42.2855 34.3685C42.3238 34.3181 42.3455 34.2569 42.3474 34.1936C42.3297 33.3217 42.5331 32.4595 42.9386 31.6874C43.3879 30.8599 44.0638 30.1777 44.8872 29.7209C45.0229 29.6457 45.1713 29.5987 45.2183 29.4338C45.2287 29.3974 45.2329 29.358 45.24 29.3208L45.3456 28.7716L45.6898 26.9804C45.8839 25.9706 45.9942 24.8951 46.4656 23.9676C47.1889 22.5443 48.5431 21.306 50.064 20.7874C50.4319 20.654 50.8223 20.5936 51.2134 20.6095L52.465 20.6537L56.0489 20.7802C56.3359 20.7764 56.6219 20.791 56.9069 20.8238C57.8419 20.9797 58.6119 21.7111 59.1669 22.4364C59.4449 22.8014 59.6869 23.1917 59.8919 23.6023C60.0239 23.8678 60.1819 24.1284 60.1369 24.4389C60.1099 24.6138 60.0329 24.7772 59.9139 24.9088C59.7959 25.0403 59.6419 25.1344 59.4699 25.1793C59.2889 25.2103 59.1039 25.2174 58.9209 25.2002L57.2459 25.1714C56.9399 25.1447 56.6309 25.1803 56.3389 25.2759C55.9089 25.4395 55.5569 25.7596 55.3539 26.1721C55.1309 26.6394 55.1649 27.1592 55.1529 27.6634L55.1099 29.4577L55.1009 29.8229H55.6849C55.6349 28.9925 55.3509 28.1933 54.8639 27.5188C54.4629 26.953 53.9029 26.4097 53.1619 26.4555C52.5377 26.4942 51.898 26.7011 51.586 27.2876C51.2273 27.962 51.3229 28.7939 51.5657 29.4882C51.7153 29.9171 51.9088 30.3294 52.1432 30.7185C52.329 31.0541 52.5764 31.3517 52.8729 31.5956L52.7279 31.3437C52.8179 32.318 52.8489 33.2968 52.8219 34.2748C52.7879 36.3383 52.5684 38.4163 52.013 40.4085C51.69 41.6291 51.1893 42.7955 50.527 43.8704L50.7789 43.726L40.2645 43.7259C39.8892 43.7258 39.8886 44.3092 40.2645 44.3092Z" fill="black"/>
<path d="M51.1038 20.3048L60.5009 20.4483C62.0439 20.4749 63.1119 22.7542 62.5259 24.1821C62.5259 24.1821 62.2909 25.4338 60.7209 26.4249C60.8039 26.5075 61.2999 25.1859 61.1339 24.6077C60.4239 25.4334 59.4689 26.0119 58.4089 26.2597C58.4089 26.2597 58.8029 25.5725 58.8119 24.9662" fill="#FFC41F"/>
<path d="M51.1034 20.5967L53.0099 20.6258L56.9049 20.6853L60.0549 20.7334C60.2589 20.7259 60.4629 20.7325 60.6659 20.7529C61.4119 20.8691 61.9479 21.5769 62.1949 22.2418C62.3429 22.6237 62.4099 23.0318 62.3929 23.4407C62.3679 23.6853 62.3129 23.926 62.2319 24.1578C62.1789 24.3556 62.0989 24.5453 61.9959 24.7218C61.7929 25.0795 61.5339 25.402 61.2279 25.677C61.0249 25.8609 60.8059 26.027 60.5739 26.1733C60.5309 26.1997 60.4949 26.2367 60.4709 26.2808C60.4459 26.3249 60.4329 26.3746 60.4329 26.4251C60.4329 26.4757 60.4459 26.5253 60.4709 26.5694C60.4949 26.6135 60.5309 26.6505 60.5739 26.677C60.9799 26.9405 61.1939 26.1879 61.2709 25.943C61.4089 25.5047 61.5339 24.9862 61.4149 24.5304C61.4009 24.4816 61.3749 24.4373 61.3389 24.4018C61.3019 24.3663 61.2569 24.3409 61.2079 24.3279C61.1589 24.315 61.1069 24.3149 61.0579 24.3279C61.0089 24.3408 60.9639 24.3662 60.9279 24.4017C60.2679 25.141 59.3319 25.8085 58.3309 25.9787L58.6599 26.4071C58.9199 25.9689 59.0719 25.475 59.1039 24.9664C59.1169 24.5909 58.5329 24.5914 58.5209 24.9664C58.4909 25.3718 58.3669 25.7646 58.1569 26.1127C58.1289 26.163 58.1169 26.2201 58.1209 26.2772C58.1259 26.3343 58.1469 26.3888 58.1819 26.4342C58.2169 26.4796 58.2639 26.5138 58.3179 26.5328C58.3719 26.5518 58.4299 26.5547 58.4859 26.5411C58.8209 26.4726 59.1459 26.3621 59.4539 26.2123C60.1729 25.8827 60.8159 25.4065 61.3399 24.8141L60.8529 24.6854C60.9219 24.9518 60.8399 25.3168 60.7629 25.603C60.7219 25.7572 60.6719 25.909 60.6139 26.0575C60.5959 26.1039 60.5919 26.1074 60.5609 26.1738C60.5489 26.1909 60.5389 26.209 60.5299 26.2281C60.5549 26.1999 60.5849 26.1772 60.6179 26.1615C60.6519 26.1457 60.6889 26.1372 60.7259 26.1365L60.8729 26.1763L60.8679 26.1733V26.677C61.6459 26.179 62.3219 25.4994 62.6809 24.6374C62.9089 24.1235 63.0069 23.5611 62.9649 23.0002C62.8269 21.6298 61.8889 20.178 60.3919 20.1552L57.6819 20.1138L53.5839 20.0512C52.7709 20.0388 51.9532 19.9972 51.1407 20.0139C51.1283 20.0142 51.1158 20.0135 51.1034 20.0133C50.7279 20.0076 50.7278 20.5909 51.1034 20.5967Z" fill="black"/>
</svg>
